%TF.GenerationSoftware,KiCad,Pcbnew,(6.0.1)*%
%TF.CreationDate,2022-10-12T14:33:58-04:00*%
%TF.ProjectId,DeathClock,44656174-6843-46c6-9f63-6b2e6b696361,rev?*%
%TF.SameCoordinates,Original*%
%TF.FileFunction,Legend,Top*%
%TF.FilePolarity,Positive*%
%FSLAX46Y46*%
G04 Gerber Fmt 4.6, Leading zero omitted, Abs format (unit mm)*
G04 Created by KiCad (PCBNEW (6.0.1)) date 2022-10-12 14:33:58*
%MOMM*%
%LPD*%
G01*
G04 APERTURE LIST*
%ADD10C,0.150000*%
%ADD11C,0.120000*%
%ADD12C,0.152400*%
G04 APERTURE END LIST*
D10*
X151595238Y-72871428D02*
X152357142Y-72871428D01*
X151976190Y-73252380D02*
X151976190Y-72490476D01*
X152833333Y-72252380D02*
X152833333Y-73061904D01*
X152880952Y-73157142D01*
X152928571Y-73204761D01*
X153023809Y-73252380D01*
X153214285Y-73252380D01*
X153309523Y-73204761D01*
X153357142Y-73157142D01*
X153404761Y-73061904D01*
X153404761Y-72252380D01*
X153880952Y-73252380D02*
X153880952Y-72252380D01*
X154261904Y-72252380D01*
X154357142Y-72300000D01*
X154404761Y-72347619D01*
X154452380Y-72442857D01*
X154452380Y-72585714D01*
X154404761Y-72680952D01*
X154357142Y-72728571D01*
X154261904Y-72776190D01*
X153880952Y-72776190D01*
X149704761Y-71557142D02*
X149657142Y-71604761D01*
X149514285Y-71652380D01*
X149419047Y-71652380D01*
X149276190Y-71604761D01*
X149180952Y-71509523D01*
X149133333Y-71414285D01*
X149085714Y-71223809D01*
X149085714Y-71080952D01*
X149133333Y-70890476D01*
X149180952Y-70795238D01*
X149276190Y-70700000D01*
X149419047Y-70652380D01*
X149514285Y-70652380D01*
X149657142Y-70700000D01*
X149704761Y-70747619D01*
X150704761Y-71652380D02*
X150371428Y-71176190D01*
X150133333Y-71652380D02*
X150133333Y-70652380D01*
X150514285Y-70652380D01*
X150609523Y-70700000D01*
X150657142Y-70747619D01*
X150704761Y-70842857D01*
X150704761Y-70985714D01*
X150657142Y-71080952D01*
X150609523Y-71128571D01*
X150514285Y-71176190D01*
X150133333Y-71176190D01*
X151085714Y-70747619D02*
X151133333Y-70700000D01*
X151228571Y-70652380D01*
X151466666Y-70652380D01*
X151561904Y-70700000D01*
X151609523Y-70747619D01*
X151657142Y-70842857D01*
X151657142Y-70938095D01*
X151609523Y-71080952D01*
X151038095Y-71652380D01*
X151657142Y-71652380D01*
X152514285Y-70985714D02*
X152514285Y-71652380D01*
X152276190Y-70604761D02*
X152038095Y-71319047D01*
X152657142Y-71319047D01*
X152942857Y-70652380D02*
X153561904Y-70652380D01*
X153228571Y-71033333D01*
X153371428Y-71033333D01*
X153466666Y-71080952D01*
X153514285Y-71128571D01*
X153561904Y-71223809D01*
X153561904Y-71461904D01*
X153514285Y-71557142D01*
X153466666Y-71604761D01*
X153371428Y-71652380D01*
X153085714Y-71652380D01*
X152990476Y-71604761D01*
X152942857Y-71557142D01*
X154180952Y-70652380D02*
X154276190Y-70652380D01*
X154371428Y-70700000D01*
X154419047Y-70747619D01*
X154466666Y-70842857D01*
X154514285Y-71033333D01*
X154514285Y-71271428D01*
X154466666Y-71461904D01*
X154419047Y-71557142D01*
X154371428Y-71604761D01*
X154276190Y-71652380D01*
X154180952Y-71652380D01*
X154085714Y-71604761D01*
X154038095Y-71557142D01*
X153990476Y-71461904D01*
X153942857Y-71271428D01*
X153942857Y-71033333D01*
X153990476Y-70842857D01*
X154038095Y-70747619D01*
X154085714Y-70700000D01*
X154180952Y-70652380D01*
X123852380Y-97523809D02*
X122852380Y-97523809D01*
X122852380Y-96857142D02*
X122852380Y-96666666D01*
X122900000Y-96571428D01*
X122995238Y-96476190D01*
X123185714Y-96428571D01*
X123519047Y-96428571D01*
X123709523Y-96476190D01*
X123804761Y-96571428D01*
X123852380Y-96666666D01*
X123852380Y-96857142D01*
X123804761Y-96952380D01*
X123709523Y-97047619D01*
X123519047Y-97095238D01*
X123185714Y-97095238D01*
X122995238Y-97047619D01*
X122900000Y-96952380D01*
X122852380Y-96857142D01*
X120842857Y-94804761D02*
X120985714Y-94852380D01*
X121223809Y-94852380D01*
X121319047Y-94804761D01*
X121366666Y-94757142D01*
X121414285Y-94661904D01*
X121414285Y-94566666D01*
X121366666Y-94471428D01*
X121319047Y-94423809D01*
X121223809Y-94376190D01*
X121033333Y-94328571D01*
X120938095Y-94280952D01*
X120890476Y-94233333D01*
X120842857Y-94138095D01*
X120842857Y-94042857D01*
X120890476Y-93947619D01*
X120938095Y-93900000D01*
X121033333Y-93852380D01*
X121271428Y-93852380D01*
X121414285Y-93900000D01*
X121747619Y-93852380D02*
X121985714Y-94852380D01*
X122176190Y-94138095D01*
X122366666Y-94852380D01*
X122604761Y-93852380D01*
X122985714Y-94852380D02*
X122985714Y-93852380D01*
X123223809Y-93852380D01*
X123366666Y-93900000D01*
X123461904Y-93995238D01*
X123509523Y-94090476D01*
X123557142Y-94280952D01*
X123557142Y-94423809D01*
X123509523Y-94614285D01*
X123461904Y-94709523D01*
X123366666Y-94804761D01*
X123223809Y-94852380D01*
X122985714Y-94852380D01*
X121452380Y-96947619D02*
X120976190Y-97280952D01*
X121452380Y-97519047D02*
X120452380Y-97519047D01*
X120452380Y-97138095D01*
X120500000Y-97042857D01*
X120547619Y-96995238D01*
X120642857Y-96947619D01*
X120785714Y-96947619D01*
X120880952Y-96995238D01*
X120928571Y-97042857D01*
X120976190Y-97138095D01*
X120976190Y-97519047D01*
X121404761Y-96566666D02*
X121452380Y-96423809D01*
X121452380Y-96185714D01*
X121404761Y-96090476D01*
X121357142Y-96042857D01*
X121261904Y-95995238D01*
X121166666Y-95995238D01*
X121071428Y-96042857D01*
X121023809Y-96090476D01*
X120976190Y-96185714D01*
X120928571Y-96376190D01*
X120880952Y-96471428D01*
X120833333Y-96519047D01*
X120738095Y-96566666D01*
X120642857Y-96566666D01*
X120547619Y-96519047D01*
X120500000Y-96471428D01*
X120452380Y-96376190D01*
X120452380Y-96138095D01*
X120500000Y-95995238D01*
X120452380Y-95709523D02*
X120452380Y-95138095D01*
X121452380Y-95423809D02*
X120452380Y-95423809D01*
X119100000Y-96961904D02*
X119052380Y-97057142D01*
X119052380Y-97200000D01*
X119100000Y-97342857D01*
X119195238Y-97438095D01*
X119290476Y-97485714D01*
X119480952Y-97533333D01*
X119623809Y-97533333D01*
X119814285Y-97485714D01*
X119909523Y-97438095D01*
X120004761Y-97342857D01*
X120052380Y-97200000D01*
X120052380Y-97104761D01*
X120004761Y-96961904D01*
X119957142Y-96914285D01*
X119623809Y-96914285D01*
X119623809Y-97104761D01*
X120052380Y-96485714D02*
X119052380Y-96485714D01*
X120052380Y-95914285D01*
X119052380Y-95914285D01*
X120052380Y-95438095D02*
X119052380Y-95438095D01*
X119052380Y-95200000D01*
X119100000Y-95057142D01*
X119195238Y-94961904D01*
X119290476Y-94914285D01*
X119480952Y-94866666D01*
X119623809Y-94866666D01*
X119814285Y-94914285D01*
X119909523Y-94961904D01*
X120004761Y-95057142D01*
X120052380Y-95200000D01*
X120052380Y-95438095D01*
X124052380Y-97561904D02*
X124052380Y-96942857D01*
X124433333Y-97276190D01*
X124433333Y-97133333D01*
X124480952Y-97038095D01*
X124528571Y-96990476D01*
X124623809Y-96942857D01*
X124861904Y-96942857D01*
X124957142Y-96990476D01*
X125004761Y-97038095D01*
X125052380Y-97133333D01*
X125052380Y-97419047D01*
X125004761Y-97514285D01*
X124957142Y-97561904D01*
X124052380Y-96657142D02*
X125052380Y-96323809D01*
X124052380Y-95990476D01*
X122557142Y-96995238D02*
X122604761Y-97042857D01*
X122652380Y-97185714D01*
X122652380Y-97280952D01*
X122604761Y-97423809D01*
X122509523Y-97519047D01*
X122414285Y-97566666D01*
X122223809Y-97614285D01*
X122080952Y-97614285D01*
X121890476Y-97566666D01*
X121795238Y-97519047D01*
X121700000Y-97423809D01*
X121652380Y-97280952D01*
X121652380Y-97185714D01*
X121700000Y-97042857D01*
X121747619Y-96995238D01*
X122652380Y-96090476D02*
X122652380Y-96566666D01*
X121652380Y-96566666D01*
X122652380Y-95757142D02*
X121652380Y-95757142D01*
X122652380Y-95185714D02*
X122080952Y-95614285D01*
X121652380Y-95185714D02*
X122223809Y-95757142D01*
X119060714Y-70942678D02*
X119310714Y-70942678D01*
X119417857Y-71335535D02*
X119060714Y-71335535D01*
X119060714Y-70585535D01*
X119417857Y-70585535D01*
X119310714Y-70299821D02*
X119203571Y-70406964D01*
X119739285Y-71335535D02*
X119739285Y-70835535D01*
X119739285Y-70906964D02*
X119775000Y-70871250D01*
X119846428Y-70835535D01*
X119953571Y-70835535D01*
X120025000Y-70871250D01*
X120060714Y-70942678D01*
X120060714Y-71335535D01*
X120060714Y-70942678D02*
X120096428Y-70871250D01*
X120167857Y-70835535D01*
X120275000Y-70835535D01*
X120346428Y-70871250D01*
X120382142Y-70942678D01*
X120382142Y-71335535D01*
X120739285Y-71335535D02*
X120739285Y-70835535D01*
X120739285Y-70585535D02*
X120703571Y-70621250D01*
X120739285Y-70656964D01*
X120775000Y-70621250D01*
X120739285Y-70585535D01*
X120739285Y-70656964D01*
X121203571Y-71335535D02*
X121132142Y-71299821D01*
X121096428Y-71228392D01*
X121096428Y-70585535D01*
X121775000Y-71299821D02*
X121703571Y-71335535D01*
X121560714Y-71335535D01*
X121489285Y-71299821D01*
X121453571Y-71228392D01*
X121453571Y-70942678D01*
X121489285Y-70871250D01*
X121560714Y-70835535D01*
X121703571Y-70835535D01*
X121775000Y-70871250D01*
X121810714Y-70942678D01*
X121810714Y-71014107D01*
X121453571Y-71085535D01*
X122953571Y-70942678D02*
X123060714Y-70978392D01*
X123096428Y-71014107D01*
X123132142Y-71085535D01*
X123132142Y-71192678D01*
X123096428Y-71264107D01*
X123060714Y-71299821D01*
X122989285Y-71335535D01*
X122703571Y-71335535D01*
X122703571Y-70585535D01*
X122953571Y-70585535D01*
X123025000Y-70621250D01*
X123060714Y-70656964D01*
X123096428Y-70728392D01*
X123096428Y-70799821D01*
X123060714Y-70871250D01*
X123025000Y-70906964D01*
X122953571Y-70942678D01*
X122703571Y-70942678D01*
X123346428Y-70585535D02*
X123596428Y-71335535D01*
X123846428Y-70585535D01*
X119078571Y-71793035D02*
X119221428Y-71793035D01*
X119292857Y-71828750D01*
X119364285Y-71900178D01*
X119400000Y-72043035D01*
X119400000Y-72293035D01*
X119364285Y-72435892D01*
X119292857Y-72507321D01*
X119221428Y-72543035D01*
X119078571Y-72543035D01*
X119007142Y-72507321D01*
X118935714Y-72435892D01*
X118900000Y-72293035D01*
X118900000Y-72043035D01*
X118935714Y-71900178D01*
X119007142Y-71828750D01*
X119078571Y-71793035D01*
X120042857Y-72507321D02*
X119971428Y-72543035D01*
X119828571Y-72543035D01*
X119757142Y-72507321D01*
X119721428Y-72471607D01*
X119685714Y-72400178D01*
X119685714Y-72185892D01*
X119721428Y-72114464D01*
X119757142Y-72078750D01*
X119828571Y-72043035D01*
X119971428Y-72043035D01*
X120042857Y-72078750D01*
X120257142Y-72043035D02*
X120542857Y-72043035D01*
X120364285Y-71793035D02*
X120364285Y-72435892D01*
X120400000Y-72507321D01*
X120471428Y-72543035D01*
X120542857Y-72543035D01*
X121328571Y-71864464D02*
X121364285Y-71828750D01*
X121435714Y-71793035D01*
X121614285Y-71793035D01*
X121685714Y-71828750D01*
X121721428Y-71864464D01*
X121757142Y-71935892D01*
X121757142Y-72007321D01*
X121721428Y-72114464D01*
X121292857Y-72543035D01*
X121757142Y-72543035D01*
X122221428Y-71793035D02*
X122292857Y-71793035D01*
X122364285Y-71828750D01*
X122400000Y-71864464D01*
X122435714Y-71935892D01*
X122471428Y-72078750D01*
X122471428Y-72257321D01*
X122435714Y-72400178D01*
X122400000Y-72471607D01*
X122364285Y-72507321D01*
X122292857Y-72543035D01*
X122221428Y-72543035D01*
X122150000Y-72507321D01*
X122114285Y-72471607D01*
X122078571Y-72400178D01*
X122042857Y-72257321D01*
X122042857Y-72078750D01*
X122078571Y-71935892D01*
X122114285Y-71864464D01*
X122150000Y-71828750D01*
X122221428Y-71793035D01*
X122757142Y-71864464D02*
X122792857Y-71828750D01*
X122864285Y-71793035D01*
X123042857Y-71793035D01*
X123114285Y-71828750D01*
X123150000Y-71864464D01*
X123185714Y-71935892D01*
X123185714Y-72007321D01*
X123150000Y-72114464D01*
X122721428Y-72543035D01*
X123185714Y-72543035D01*
X123471428Y-71864464D02*
X123507142Y-71828750D01*
X123578571Y-71793035D01*
X123757142Y-71793035D01*
X123828571Y-71828750D01*
X123864285Y-71864464D01*
X123900000Y-71935892D01*
X123900000Y-72007321D01*
X123864285Y-72114464D01*
X123435714Y-72543035D01*
X123900000Y-72543035D01*
%TO.C,J2*%
X121466666Y-75852380D02*
X121466666Y-76566666D01*
X121419047Y-76709523D01*
X121323809Y-76804761D01*
X121180952Y-76852380D01*
X121085714Y-76852380D01*
X121895238Y-75947619D02*
X121942857Y-75900000D01*
X122038095Y-75852380D01*
X122276190Y-75852380D01*
X122371428Y-75900000D01*
X122419047Y-75947619D01*
X122466666Y-76042857D01*
X122466666Y-76138095D01*
X122419047Y-76280952D01*
X121847619Y-76852380D01*
X122466666Y-76852380D01*
%TO.C,C16*%
X131157142Y-87957142D02*
X131109523Y-88004761D01*
X130966666Y-88052380D01*
X130871428Y-88052380D01*
X130728571Y-88004761D01*
X130633333Y-87909523D01*
X130585714Y-87814285D01*
X130538095Y-87623809D01*
X130538095Y-87480952D01*
X130585714Y-87290476D01*
X130633333Y-87195238D01*
X130728571Y-87100000D01*
X130871428Y-87052380D01*
X130966666Y-87052380D01*
X131109523Y-87100000D01*
X131157142Y-87147619D01*
X132109523Y-88052380D02*
X131538095Y-88052380D01*
X131823809Y-88052380D02*
X131823809Y-87052380D01*
X131728571Y-87195238D01*
X131633333Y-87290476D01*
X131538095Y-87338095D01*
X132966666Y-87052380D02*
X132776190Y-87052380D01*
X132680952Y-87100000D01*
X132633333Y-87147619D01*
X132538095Y-87290476D01*
X132490476Y-87480952D01*
X132490476Y-87861904D01*
X132538095Y-87957142D01*
X132585714Y-88004761D01*
X132680952Y-88052380D01*
X132871428Y-88052380D01*
X132966666Y-88004761D01*
X133014285Y-87957142D01*
X133061904Y-87861904D01*
X133061904Y-87623809D01*
X133014285Y-87528571D01*
X132966666Y-87480952D01*
X132871428Y-87433333D01*
X132680952Y-87433333D01*
X132585714Y-87480952D01*
X132538095Y-87528571D01*
X132490476Y-87623809D01*
%TO.C,Q2*%
X136504761Y-73547619D02*
X136409523Y-73500000D01*
X136314285Y-73404761D01*
X136171428Y-73261904D01*
X136076190Y-73214285D01*
X135980952Y-73214285D01*
X136028571Y-73452380D02*
X135933333Y-73404761D01*
X135838095Y-73309523D01*
X135790476Y-73119047D01*
X135790476Y-72785714D01*
X135838095Y-72595238D01*
X135933333Y-72500000D01*
X136028571Y-72452380D01*
X136219047Y-72452380D01*
X136314285Y-72500000D01*
X136409523Y-72595238D01*
X136457142Y-72785714D01*
X136457142Y-73119047D01*
X136409523Y-73309523D01*
X136314285Y-73404761D01*
X136219047Y-73452380D01*
X136028571Y-73452380D01*
X136838095Y-72547619D02*
X136885714Y-72500000D01*
X136980952Y-72452380D01*
X137219047Y-72452380D01*
X137314285Y-72500000D01*
X137361904Y-72547619D01*
X137409523Y-72642857D01*
X137409523Y-72738095D01*
X137361904Y-72880952D01*
X136790476Y-73452380D01*
X137409523Y-73452380D01*
%TO.C,U1*%
X133638095Y-91852380D02*
X133638095Y-92661904D01*
X133685714Y-92757142D01*
X133733333Y-92804761D01*
X133828571Y-92852380D01*
X134019047Y-92852380D01*
X134114285Y-92804761D01*
X134161904Y-92757142D01*
X134209523Y-92661904D01*
X134209523Y-91852380D01*
X135209523Y-92852380D02*
X134638095Y-92852380D01*
X134923809Y-92852380D02*
X134923809Y-91852380D01*
X134828571Y-91995238D01*
X134733333Y-92090476D01*
X134638095Y-92138095D01*
X133625981Y-91075000D02*
X133864077Y-91075000D01*
X133768839Y-91313095D02*
X133864077Y-91075000D01*
X133768839Y-90836904D01*
X134054553Y-91217857D02*
X133864077Y-91075000D01*
X134054553Y-90932142D01*
X134721220Y-91075000D02*
X134483124Y-91075000D01*
X134578362Y-90836904D02*
X134483124Y-91075000D01*
X134578362Y-91313095D01*
X134292648Y-90932142D02*
X134483124Y-91075000D01*
X134292648Y-91217857D01*
%TO.C,C13*%
X136557142Y-99557142D02*
X136509523Y-99604761D01*
X136366666Y-99652380D01*
X136271428Y-99652380D01*
X136128571Y-99604761D01*
X136033333Y-99509523D01*
X135985714Y-99414285D01*
X135938095Y-99223809D01*
X135938095Y-99080952D01*
X135985714Y-98890476D01*
X136033333Y-98795238D01*
X136128571Y-98700000D01*
X136271428Y-98652380D01*
X136366666Y-98652380D01*
X136509523Y-98700000D01*
X136557142Y-98747619D01*
X137509523Y-99652380D02*
X136938095Y-99652380D01*
X137223809Y-99652380D02*
X137223809Y-98652380D01*
X137128571Y-98795238D01*
X137033333Y-98890476D01*
X136938095Y-98938095D01*
X137842857Y-98652380D02*
X138461904Y-98652380D01*
X138128571Y-99033333D01*
X138271428Y-99033333D01*
X138366666Y-99080952D01*
X138414285Y-99128571D01*
X138461904Y-99223809D01*
X138461904Y-99461904D01*
X138414285Y-99557142D01*
X138366666Y-99604761D01*
X138271428Y-99652380D01*
X137985714Y-99652380D01*
X137890476Y-99604761D01*
X137842857Y-99557142D01*
%TO.C,Y1*%
X134023809Y-93726190D02*
X134023809Y-94202380D01*
X133690476Y-93202380D02*
X134023809Y-93726190D01*
X134357142Y-93202380D01*
X135214285Y-94202380D02*
X134642857Y-94202380D01*
X134928571Y-94202380D02*
X134928571Y-93202380D01*
X134833333Y-93345238D01*
X134738095Y-93440476D01*
X134642857Y-93488095D01*
%TO.C,C2*%
X132233333Y-77757142D02*
X132185714Y-77804761D01*
X132042857Y-77852380D01*
X131947619Y-77852380D01*
X131804761Y-77804761D01*
X131709523Y-77709523D01*
X131661904Y-77614285D01*
X131614285Y-77423809D01*
X131614285Y-77280952D01*
X131661904Y-77090476D01*
X131709523Y-76995238D01*
X131804761Y-76900000D01*
X131947619Y-76852380D01*
X132042857Y-76852380D01*
X132185714Y-76900000D01*
X132233333Y-76947619D01*
X132614285Y-76947619D02*
X132661904Y-76900000D01*
X132757142Y-76852380D01*
X132995238Y-76852380D01*
X133090476Y-76900000D01*
X133138095Y-76947619D01*
X133185714Y-77042857D01*
X133185714Y-77138095D01*
X133138095Y-77280952D01*
X132566666Y-77852380D01*
X133185714Y-77852380D01*
%TO.C,R2*%
X129433333Y-88452380D02*
X129100000Y-87976190D01*
X128861904Y-88452380D02*
X128861904Y-87452380D01*
X129242857Y-87452380D01*
X129338095Y-87500000D01*
X129385714Y-87547619D01*
X129433333Y-87642857D01*
X129433333Y-87785714D01*
X129385714Y-87880952D01*
X129338095Y-87928571D01*
X129242857Y-87976190D01*
X128861904Y-87976190D01*
X129814285Y-87547619D02*
X129861904Y-87500000D01*
X129957142Y-87452380D01*
X130195238Y-87452380D01*
X130290476Y-87500000D01*
X130338095Y-87547619D01*
X130385714Y-87642857D01*
X130385714Y-87738095D01*
X130338095Y-87880952D01*
X129766666Y-88452380D01*
X130385714Y-88452380D01*
%TO.C,C14*%
X141557142Y-99557142D02*
X141509523Y-99604761D01*
X141366666Y-99652380D01*
X141271428Y-99652380D01*
X141128571Y-99604761D01*
X141033333Y-99509523D01*
X140985714Y-99414285D01*
X140938095Y-99223809D01*
X140938095Y-99080952D01*
X140985714Y-98890476D01*
X141033333Y-98795238D01*
X141128571Y-98700000D01*
X141271428Y-98652380D01*
X141366666Y-98652380D01*
X141509523Y-98700000D01*
X141557142Y-98747619D01*
X142509523Y-99652380D02*
X141938095Y-99652380D01*
X142223809Y-99652380D02*
X142223809Y-98652380D01*
X142128571Y-98795238D01*
X142033333Y-98890476D01*
X141938095Y-98938095D01*
X143366666Y-98985714D02*
X143366666Y-99652380D01*
X143128571Y-98604761D02*
X142890476Y-99319047D01*
X143509523Y-99319047D01*
%TO.C,C9*%
X125033333Y-78597142D02*
X124985714Y-78644761D01*
X124842857Y-78692380D01*
X124747619Y-78692380D01*
X124604761Y-78644761D01*
X124509523Y-78549523D01*
X124461904Y-78454285D01*
X124414285Y-78263809D01*
X124414285Y-78120952D01*
X124461904Y-77930476D01*
X124509523Y-77835238D01*
X124604761Y-77740000D01*
X124747619Y-77692380D01*
X124842857Y-77692380D01*
X124985714Y-77740000D01*
X125033333Y-77787619D01*
X125509523Y-78692380D02*
X125700000Y-78692380D01*
X125795238Y-78644761D01*
X125842857Y-78597142D01*
X125938095Y-78454285D01*
X125985714Y-78263809D01*
X125985714Y-77882857D01*
X125938095Y-77787619D01*
X125890476Y-77740000D01*
X125795238Y-77692380D01*
X125604761Y-77692380D01*
X125509523Y-77740000D01*
X125461904Y-77787619D01*
X125414285Y-77882857D01*
X125414285Y-78120952D01*
X125461904Y-78216190D01*
X125509523Y-78263809D01*
X125604761Y-78311428D01*
X125795238Y-78311428D01*
X125890476Y-78263809D01*
X125938095Y-78216190D01*
X125985714Y-78120952D01*
%TO.C,R4*%
X131433333Y-81652380D02*
X131100000Y-81176190D01*
X130861904Y-81652380D02*
X130861904Y-80652380D01*
X131242857Y-80652380D01*
X131338095Y-80700000D01*
X131385714Y-80747619D01*
X131433333Y-80842857D01*
X131433333Y-80985714D01*
X131385714Y-81080952D01*
X131338095Y-81128571D01*
X131242857Y-81176190D01*
X130861904Y-81176190D01*
X132290476Y-80985714D02*
X132290476Y-81652380D01*
X132052380Y-80604761D02*
X131814285Y-81319047D01*
X132433333Y-81319047D01*
%TO.C,BAT1*%
X150785714Y-97528571D02*
X150928571Y-97576190D01*
X150976190Y-97623809D01*
X151023809Y-97719047D01*
X151023809Y-97861904D01*
X150976190Y-97957142D01*
X150928571Y-98004761D01*
X150833333Y-98052380D01*
X150452380Y-98052380D01*
X150452380Y-97052380D01*
X150785714Y-97052380D01*
X150880952Y-97100000D01*
X150928571Y-97147619D01*
X150976190Y-97242857D01*
X150976190Y-97338095D01*
X150928571Y-97433333D01*
X150880952Y-97480952D01*
X150785714Y-97528571D01*
X150452380Y-97528571D01*
X151404761Y-97766666D02*
X151880952Y-97766666D01*
X151309523Y-98052380D02*
X151642857Y-97052380D01*
X151976190Y-98052380D01*
X152166666Y-97052380D02*
X152738095Y-97052380D01*
X152452380Y-98052380D02*
X152452380Y-97052380D01*
X153595238Y-98052380D02*
X153023809Y-98052380D01*
X153309523Y-98052380D02*
X153309523Y-97052380D01*
X153214285Y-97195238D01*
X153119047Y-97290476D01*
X153023809Y-97338095D01*
%TO.C,C15*%
X128157142Y-89757142D02*
X128109523Y-89804761D01*
X127966666Y-89852380D01*
X127871428Y-89852380D01*
X127728571Y-89804761D01*
X127633333Y-89709523D01*
X127585714Y-89614285D01*
X127538095Y-89423809D01*
X127538095Y-89280952D01*
X127585714Y-89090476D01*
X127633333Y-88995238D01*
X127728571Y-88900000D01*
X127871428Y-88852380D01*
X127966666Y-88852380D01*
X128109523Y-88900000D01*
X128157142Y-88947619D01*
X129109523Y-89852380D02*
X128538095Y-89852380D01*
X128823809Y-89852380D02*
X128823809Y-88852380D01*
X128728571Y-88995238D01*
X128633333Y-89090476D01*
X128538095Y-89138095D01*
X130014285Y-88852380D02*
X129538095Y-88852380D01*
X129490476Y-89328571D01*
X129538095Y-89280952D01*
X129633333Y-89233333D01*
X129871428Y-89233333D01*
X129966666Y-89280952D01*
X130014285Y-89328571D01*
X130061904Y-89423809D01*
X130061904Y-89661904D01*
X130014285Y-89757142D01*
X129966666Y-89804761D01*
X129871428Y-89852380D01*
X129633333Y-89852380D01*
X129538095Y-89804761D01*
X129490476Y-89757142D01*
%TO.C,Q1*%
X125504761Y-86147619D02*
X125409523Y-86100000D01*
X125314285Y-86004761D01*
X125171428Y-85861904D01*
X125076190Y-85814285D01*
X124980952Y-85814285D01*
X125028571Y-86052380D02*
X124933333Y-86004761D01*
X124838095Y-85909523D01*
X124790476Y-85719047D01*
X124790476Y-85385714D01*
X124838095Y-85195238D01*
X124933333Y-85100000D01*
X125028571Y-85052380D01*
X125219047Y-85052380D01*
X125314285Y-85100000D01*
X125409523Y-85195238D01*
X125457142Y-85385714D01*
X125457142Y-85719047D01*
X125409523Y-85909523D01*
X125314285Y-86004761D01*
X125219047Y-86052380D01*
X125028571Y-86052380D01*
X126409523Y-86052380D02*
X125838095Y-86052380D01*
X126123809Y-86052380D02*
X126123809Y-85052380D01*
X126028571Y-85195238D01*
X125933333Y-85290476D01*
X125838095Y-85338095D01*
%TO.C,C5*%
X124433333Y-74157142D02*
X124385714Y-74204761D01*
X124242857Y-74252380D01*
X124147619Y-74252380D01*
X124004761Y-74204761D01*
X123909523Y-74109523D01*
X123861904Y-74014285D01*
X123814285Y-73823809D01*
X123814285Y-73680952D01*
X123861904Y-73490476D01*
X123909523Y-73395238D01*
X124004761Y-73300000D01*
X124147619Y-73252380D01*
X124242857Y-73252380D01*
X124385714Y-73300000D01*
X124433333Y-73347619D01*
X125338095Y-73252380D02*
X124861904Y-73252380D01*
X124814285Y-73728571D01*
X124861904Y-73680952D01*
X124957142Y-73633333D01*
X125195238Y-73633333D01*
X125290476Y-73680952D01*
X125338095Y-73728571D01*
X125385714Y-73823809D01*
X125385714Y-74061904D01*
X125338095Y-74157142D01*
X125290476Y-74204761D01*
X125195238Y-74252380D01*
X124957142Y-74252380D01*
X124861904Y-74204761D01*
X124814285Y-74157142D01*
%TO.C,C4*%
X131233333Y-80357142D02*
X131185714Y-80404761D01*
X131042857Y-80452380D01*
X130947619Y-80452380D01*
X130804761Y-80404761D01*
X130709523Y-80309523D01*
X130661904Y-80214285D01*
X130614285Y-80023809D01*
X130614285Y-79880952D01*
X130661904Y-79690476D01*
X130709523Y-79595238D01*
X130804761Y-79500000D01*
X130947619Y-79452380D01*
X131042857Y-79452380D01*
X131185714Y-79500000D01*
X131233333Y-79547619D01*
X132090476Y-79785714D02*
X132090476Y-80452380D01*
X131852380Y-79404761D02*
X131614285Y-80119047D01*
X132233333Y-80119047D01*
%TO.C,C11*%
X137557142Y-94957142D02*
X137509523Y-95004761D01*
X137366666Y-95052380D01*
X137271428Y-95052380D01*
X137128571Y-95004761D01*
X137033333Y-94909523D01*
X136985714Y-94814285D01*
X136938095Y-94623809D01*
X136938095Y-94480952D01*
X136985714Y-94290476D01*
X137033333Y-94195238D01*
X137128571Y-94100000D01*
X137271428Y-94052380D01*
X137366666Y-94052380D01*
X137509523Y-94100000D01*
X137557142Y-94147619D01*
X138509523Y-95052380D02*
X137938095Y-95052380D01*
X138223809Y-95052380D02*
X138223809Y-94052380D01*
X138128571Y-94195238D01*
X138033333Y-94290476D01*
X137938095Y-94338095D01*
X139461904Y-95052380D02*
X138890476Y-95052380D01*
X139176190Y-95052380D02*
X139176190Y-94052380D01*
X139080952Y-94195238D01*
X138985714Y-94290476D01*
X138890476Y-94338095D01*
%TO.C,R1*%
X139233333Y-72252380D02*
X138900000Y-71776190D01*
X138661904Y-72252380D02*
X138661904Y-71252380D01*
X139042857Y-71252380D01*
X139138095Y-71300000D01*
X139185714Y-71347619D01*
X139233333Y-71442857D01*
X139233333Y-71585714D01*
X139185714Y-71680952D01*
X139138095Y-71728571D01*
X139042857Y-71776190D01*
X138661904Y-71776190D01*
X140185714Y-72252380D02*
X139614285Y-72252380D01*
X139900000Y-72252380D02*
X139900000Y-71252380D01*
X139804761Y-71395238D01*
X139709523Y-71490476D01*
X139614285Y-71538095D01*
%TO.C,D2*%
X124461904Y-77452380D02*
X124461904Y-76452380D01*
X124700000Y-76452380D01*
X124842857Y-76500000D01*
X124938095Y-76595238D01*
X124985714Y-76690476D01*
X125033333Y-76880952D01*
X125033333Y-77023809D01*
X124985714Y-77214285D01*
X124938095Y-77309523D01*
X124842857Y-77404761D01*
X124700000Y-77452380D01*
X124461904Y-77452380D01*
X125414285Y-76547619D02*
X125461904Y-76500000D01*
X125557142Y-76452380D01*
X125795238Y-76452380D01*
X125890476Y-76500000D01*
X125938095Y-76547619D01*
X125985714Y-76642857D01*
X125985714Y-76738095D01*
X125938095Y-76880952D01*
X125366666Y-77452380D01*
X125985714Y-77452380D01*
%TO.C,C6*%
X124033333Y-92557142D02*
X123985714Y-92604761D01*
X123842857Y-92652380D01*
X123747619Y-92652380D01*
X123604761Y-92604761D01*
X123509523Y-92509523D01*
X123461904Y-92414285D01*
X123414285Y-92223809D01*
X123414285Y-92080952D01*
X123461904Y-91890476D01*
X123509523Y-91795238D01*
X123604761Y-91700000D01*
X123747619Y-91652380D01*
X123842857Y-91652380D01*
X123985714Y-91700000D01*
X124033333Y-91747619D01*
X124890476Y-91652380D02*
X124700000Y-91652380D01*
X124604761Y-91700000D01*
X124557142Y-91747619D01*
X124461904Y-91890476D01*
X124414285Y-92080952D01*
X124414285Y-92461904D01*
X124461904Y-92557142D01*
X124509523Y-92604761D01*
X124604761Y-92652380D01*
X124795238Y-92652380D01*
X124890476Y-92604761D01*
X124938095Y-92557142D01*
X124985714Y-92461904D01*
X124985714Y-92223809D01*
X124938095Y-92128571D01*
X124890476Y-92080952D01*
X124795238Y-92033333D01*
X124604761Y-92033333D01*
X124509523Y-92080952D01*
X124461904Y-92128571D01*
X124414285Y-92223809D01*
%TO.C,C10*%
X126957142Y-81757142D02*
X126909523Y-81804761D01*
X126766666Y-81852380D01*
X126671428Y-81852380D01*
X126528571Y-81804761D01*
X126433333Y-81709523D01*
X126385714Y-81614285D01*
X126338095Y-81423809D01*
X126338095Y-81280952D01*
X126385714Y-81090476D01*
X126433333Y-80995238D01*
X126528571Y-80900000D01*
X126671428Y-80852380D01*
X126766666Y-80852380D01*
X126909523Y-80900000D01*
X126957142Y-80947619D01*
X127909523Y-81852380D02*
X127338095Y-81852380D01*
X127623809Y-81852380D02*
X127623809Y-80852380D01*
X127528571Y-80995238D01*
X127433333Y-81090476D01*
X127338095Y-81138095D01*
X128528571Y-80852380D02*
X128623809Y-80852380D01*
X128719047Y-80900000D01*
X128766666Y-80947619D01*
X128814285Y-81042857D01*
X128861904Y-81233333D01*
X128861904Y-81471428D01*
X128814285Y-81661904D01*
X128766666Y-81757142D01*
X128719047Y-81804761D01*
X128623809Y-81852380D01*
X128528571Y-81852380D01*
X128433333Y-81804761D01*
X128385714Y-81757142D01*
X128338095Y-81661904D01*
X128290476Y-81471428D01*
X128290476Y-81233333D01*
X128338095Y-81042857D01*
X128385714Y-80947619D01*
X128433333Y-80900000D01*
X128528571Y-80852380D01*
%TO.C,R3*%
X125233333Y-88252380D02*
X124900000Y-87776190D01*
X124661904Y-88252380D02*
X124661904Y-87252380D01*
X125042857Y-87252380D01*
X125138095Y-87300000D01*
X125185714Y-87347619D01*
X125233333Y-87442857D01*
X125233333Y-87585714D01*
X125185714Y-87680952D01*
X125138095Y-87728571D01*
X125042857Y-87776190D01*
X124661904Y-87776190D01*
X125566666Y-87252380D02*
X126185714Y-87252380D01*
X125852380Y-87633333D01*
X125995238Y-87633333D01*
X126090476Y-87680952D01*
X126138095Y-87728571D01*
X126185714Y-87823809D01*
X126185714Y-88061904D01*
X126138095Y-88157142D01*
X126090476Y-88204761D01*
X125995238Y-88252380D01*
X125709523Y-88252380D01*
X125614285Y-88204761D01*
X125566666Y-88157142D01*
%TO.C,C7*%
X124833333Y-84157142D02*
X124785714Y-84204761D01*
X124642857Y-84252380D01*
X124547619Y-84252380D01*
X124404761Y-84204761D01*
X124309523Y-84109523D01*
X124261904Y-84014285D01*
X124214285Y-83823809D01*
X124214285Y-83680952D01*
X124261904Y-83490476D01*
X124309523Y-83395238D01*
X124404761Y-83300000D01*
X124547619Y-83252380D01*
X124642857Y-83252380D01*
X124785714Y-83300000D01*
X124833333Y-83347619D01*
X125166666Y-83252380D02*
X125833333Y-83252380D01*
X125404761Y-84252380D01*
%TO.C,C1*%
X133433333Y-80157142D02*
X133385714Y-80204761D01*
X133242857Y-80252380D01*
X133147619Y-80252380D01*
X133004761Y-80204761D01*
X132909523Y-80109523D01*
X132861904Y-80014285D01*
X132814285Y-79823809D01*
X132814285Y-79680952D01*
X132861904Y-79490476D01*
X132909523Y-79395238D01*
X133004761Y-79300000D01*
X133147619Y-79252380D01*
X133242857Y-79252380D01*
X133385714Y-79300000D01*
X133433333Y-79347619D01*
X134385714Y-80252380D02*
X133814285Y-80252380D01*
X134100000Y-80252380D02*
X134100000Y-79252380D01*
X134004761Y-79395238D01*
X133909523Y-79490476D01*
X133814285Y-79538095D01*
%TO.C,L1*%
X137233333Y-75252380D02*
X136757142Y-75252380D01*
X136757142Y-74252380D01*
X138090476Y-75252380D02*
X137519047Y-75252380D01*
X137804761Y-75252380D02*
X137804761Y-74252380D01*
X137709523Y-74395238D01*
X137614285Y-74490476D01*
X137519047Y-74538095D01*
%TO.C,J1*%
X126266666Y-98852380D02*
X126266666Y-99566666D01*
X126219047Y-99709523D01*
X126123809Y-99804761D01*
X125980952Y-99852380D01*
X125885714Y-99852380D01*
X127266666Y-99852380D02*
X126695238Y-99852380D01*
X126980952Y-99852380D02*
X126980952Y-98852380D01*
X126885714Y-98995238D01*
X126790476Y-99090476D01*
X126695238Y-99138095D01*
%TO.C,C3*%
X126833333Y-76757142D02*
X126785714Y-76804761D01*
X126642857Y-76852380D01*
X126547619Y-76852380D01*
X126404761Y-76804761D01*
X126309523Y-76709523D01*
X126261904Y-76614285D01*
X126214285Y-76423809D01*
X126214285Y-76280952D01*
X126261904Y-76090476D01*
X126309523Y-75995238D01*
X126404761Y-75900000D01*
X126547619Y-75852380D01*
X126642857Y-75852380D01*
X126785714Y-75900000D01*
X126833333Y-75947619D01*
X127166666Y-75852380D02*
X127785714Y-75852380D01*
X127452380Y-76233333D01*
X127595238Y-76233333D01*
X127690476Y-76280952D01*
X127738095Y-76328571D01*
X127785714Y-76423809D01*
X127785714Y-76661904D01*
X127738095Y-76757142D01*
X127690476Y-76804761D01*
X127595238Y-76852380D01*
X127309523Y-76852380D01*
X127214285Y-76804761D01*
X127166666Y-76757142D01*
%TO.C,D3*%
X124861904Y-75652380D02*
X124861904Y-74652380D01*
X125100000Y-74652380D01*
X125242857Y-74700000D01*
X125338095Y-74795238D01*
X125385714Y-74890476D01*
X125433333Y-75080952D01*
X125433333Y-75223809D01*
X125385714Y-75414285D01*
X125338095Y-75509523D01*
X125242857Y-75604761D01*
X125100000Y-75652380D01*
X124861904Y-75652380D01*
X125766666Y-74652380D02*
X126385714Y-74652380D01*
X126052380Y-75033333D01*
X126195238Y-75033333D01*
X126290476Y-75080952D01*
X126338095Y-75128571D01*
X126385714Y-75223809D01*
X126385714Y-75461904D01*
X126338095Y-75557142D01*
X126290476Y-75604761D01*
X126195238Y-75652380D01*
X125909523Y-75652380D01*
X125814285Y-75604761D01*
X125766666Y-75557142D01*
%TO.C,C12*%
X137557142Y-96757142D02*
X137509523Y-96804761D01*
X137366666Y-96852380D01*
X137271428Y-96852380D01*
X137128571Y-96804761D01*
X137033333Y-96709523D01*
X136985714Y-96614285D01*
X136938095Y-96423809D01*
X136938095Y-96280952D01*
X136985714Y-96090476D01*
X137033333Y-95995238D01*
X137128571Y-95900000D01*
X137271428Y-95852380D01*
X137366666Y-95852380D01*
X137509523Y-95900000D01*
X137557142Y-95947619D01*
X138509523Y-96852380D02*
X137938095Y-96852380D01*
X138223809Y-96852380D02*
X138223809Y-95852380D01*
X138128571Y-95995238D01*
X138033333Y-96090476D01*
X137938095Y-96138095D01*
X138890476Y-95947619D02*
X138938095Y-95900000D01*
X139033333Y-95852380D01*
X139271428Y-95852380D01*
X139366666Y-95900000D01*
X139414285Y-95947619D01*
X139461904Y-96042857D01*
X139461904Y-96138095D01*
X139414285Y-96280952D01*
X138842857Y-96852380D01*
X139461904Y-96852380D01*
%TO.C,D1*%
X124861904Y-72052380D02*
X124861904Y-71052380D01*
X125100000Y-71052380D01*
X125242857Y-71100000D01*
X125338095Y-71195238D01*
X125385714Y-71290476D01*
X125433333Y-71480952D01*
X125433333Y-71623809D01*
X125385714Y-71814285D01*
X125338095Y-71909523D01*
X125242857Y-72004761D01*
X125100000Y-72052380D01*
X124861904Y-72052380D01*
X126385714Y-72052380D02*
X125814285Y-72052380D01*
X126100000Y-72052380D02*
X126100000Y-71052380D01*
X126004761Y-71195238D01*
X125909523Y-71290476D01*
X125814285Y-71338095D01*
%TO.C,C8*%
X127033333Y-80557142D02*
X126985714Y-80604761D01*
X126842857Y-80652380D01*
X126747619Y-80652380D01*
X126604761Y-80604761D01*
X126509523Y-80509523D01*
X126461904Y-80414285D01*
X126414285Y-80223809D01*
X126414285Y-80080952D01*
X126461904Y-79890476D01*
X126509523Y-79795238D01*
X126604761Y-79700000D01*
X126747619Y-79652380D01*
X126842857Y-79652380D01*
X126985714Y-79700000D01*
X127033333Y-79747619D01*
X127604761Y-80080952D02*
X127509523Y-80033333D01*
X127461904Y-79985714D01*
X127414285Y-79890476D01*
X127414285Y-79842857D01*
X127461904Y-79747619D01*
X127509523Y-79700000D01*
X127604761Y-79652380D01*
X127795238Y-79652380D01*
X127890476Y-79700000D01*
X127938095Y-79747619D01*
X127985714Y-79842857D01*
X127985714Y-79890476D01*
X127938095Y-79985714D01*
X127890476Y-80033333D01*
X127795238Y-80080952D01*
X127604761Y-80080952D01*
X127509523Y-80128571D01*
X127461904Y-80176190D01*
X127414285Y-80271428D01*
X127414285Y-80461904D01*
X127461904Y-80557142D01*
X127509523Y-80604761D01*
X127604761Y-80652380D01*
X127795238Y-80652380D01*
X127890476Y-80604761D01*
X127938095Y-80557142D01*
X127985714Y-80461904D01*
X127985714Y-80271428D01*
X127938095Y-80176190D01*
X127890476Y-80128571D01*
X127795238Y-80080952D01*
D11*
%TO.C,J2*%
X122580000Y-93550000D02*
X120980000Y-93550000D01*
X122580000Y-79400000D02*
X122580000Y-77250000D01*
X122580000Y-77250000D02*
X120980000Y-77250000D01*
X122580000Y-91400000D02*
X122580000Y-93550000D01*
%TO.C,C16*%
X131915835Y-88960000D02*
X131684165Y-88960000D01*
X131915835Y-88240000D02*
X131684165Y-88240000D01*
%TO.C,Q2*%
X133600000Y-73360000D02*
X134250000Y-73360000D01*
X133600000Y-70240000D02*
X131925000Y-70240000D01*
X133600000Y-70240000D02*
X134250000Y-70240000D01*
X133600000Y-73360000D02*
X132950000Y-73360000D01*
D12*
%TO.C,U1*%
X133179000Y-96368764D02*
X133179000Y-92131249D01*
X126321000Y-92131236D02*
X126321000Y-96368751D01*
G36*
X132865498Y-98415600D02*
G01*
X132484498Y-98415600D01*
X132484498Y-98161600D01*
X132865498Y-98161600D01*
X132865498Y-98415600D01*
G37*
G36*
X127015502Y-90338400D02*
G01*
X126634502Y-90338400D01*
X126634502Y-90084400D01*
X127015502Y-90084400D01*
X127015502Y-90338400D01*
G37*
D11*
%TO.C,C13*%
X138840000Y-98315835D02*
X138840000Y-98084165D01*
X139560000Y-98315835D02*
X139560000Y-98084165D01*
%TO.C,Y1*%
X135300000Y-97650000D02*
X135300000Y-94800000D01*
X133700000Y-94800000D02*
X133700000Y-97650000D01*
X133700000Y-97650000D02*
X135300000Y-97650000D01*
%TO.C,C2*%
X134284165Y-77760000D02*
X134515835Y-77760000D01*
X134284165Y-77040000D02*
X134515835Y-77040000D01*
%TO.C,R2*%
X129367621Y-86420000D02*
X129032379Y-86420000D01*
X129367621Y-87180000D02*
X129032379Y-87180000D01*
%TO.C,C14*%
X140560000Y-98315835D02*
X140560000Y-98084165D01*
X139840000Y-98315835D02*
X139840000Y-98084165D01*
%TO.C,C9*%
X125084165Y-79760000D02*
X125315835Y-79760000D01*
X125084165Y-79040000D02*
X125315835Y-79040000D01*
%TO.C,R4*%
X131767621Y-82780000D02*
X131432379Y-82780000D01*
X131767621Y-82020000D02*
X131432379Y-82020000D01*
%TO.C,BAT1*%
X133300000Y-82660000D02*
X143460000Y-72500000D01*
X133300000Y-82660000D02*
X133300000Y-87740000D01*
X148540000Y-72500000D02*
X153620000Y-76310000D01*
X148540000Y-97900000D02*
X153620000Y-94090000D01*
X143460000Y-97900000D02*
X148540000Y-97900000D01*
X143460000Y-72500000D02*
X148540000Y-72500000D01*
X133300000Y-87740000D02*
X143460000Y-97900000D01*
X154890000Y-80120000D02*
G75*
G03*
X154890000Y-90280000I10160003J-5080000D01*
G01*
X154890000Y-80120000D02*
G75*
G03*
X153636356Y-76310000I-3042877J1110020D01*
G01*
X153620000Y-94090000D02*
G75*
G03*
X154890000Y-90280000I-1771645J2707215D01*
G01*
%TO.C,C15*%
X131515835Y-89240000D02*
X131284165Y-89240000D01*
X131515835Y-89960000D02*
X131284165Y-89960000D01*
%TO.C,Q1*%
X128400000Y-86160000D02*
X127750000Y-86160000D01*
X128400000Y-83040000D02*
X129050000Y-83040000D01*
X128400000Y-83040000D02*
X127750000Y-83040000D01*
X128400000Y-86160000D02*
X130075000Y-86160000D01*
%TO.C,C5*%
X126360000Y-73284165D02*
X126360000Y-73515835D01*
X125640000Y-73284165D02*
X125640000Y-73515835D01*
%TO.C,C4*%
X129515835Y-79640000D02*
X129284165Y-79640000D01*
X129515835Y-80360000D02*
X129284165Y-80360000D01*
%TO.C,C11*%
X136610000Y-94634165D02*
X136610000Y-94865835D01*
X135890000Y-94634165D02*
X135890000Y-94865835D01*
%TO.C,R1*%
X137167621Y-71420000D02*
X136832379Y-71420000D01*
X137167621Y-72180000D02*
X136832379Y-72180000D01*
%TO.C,D2*%
X126800000Y-79200000D02*
X130650000Y-79200000D01*
X126800000Y-77200000D02*
X126800000Y-79200000D01*
X126800000Y-77200000D02*
X130650000Y-77200000D01*
%TO.C,C6*%
X125240000Y-91515835D02*
X125240000Y-91284165D01*
X125960000Y-91515835D02*
X125960000Y-91284165D01*
%TO.C,C10*%
X125084165Y-81040000D02*
X125315835Y-81040000D01*
X125084165Y-81760000D02*
X125315835Y-81760000D01*
%TO.C,R3*%
X127767621Y-87420000D02*
X127432379Y-87420000D01*
X127767621Y-88180000D02*
X127432379Y-88180000D01*
%TO.C,C7*%
X125034165Y-82160000D02*
X125265835Y-82160000D01*
X125034165Y-82880000D02*
X125265835Y-82880000D01*
%TO.C,C1*%
X133684165Y-78240000D02*
X133915835Y-78240000D01*
X133684165Y-78960000D02*
X133915835Y-78960000D01*
%TO.C,L1*%
X134602064Y-76560000D02*
X133397936Y-76560000D01*
X134602064Y-73840000D02*
X133397936Y-73840000D01*
%TO.C,J1*%
X120260000Y-98436529D02*
X120260000Y-97890000D01*
X120260000Y-100110000D02*
X120260000Y-99563471D01*
X118740000Y-100110000D02*
X118740000Y-99000000D01*
X125275000Y-98692470D02*
X125275000Y-97890000D01*
X120260000Y-100110000D02*
X125275000Y-100110000D01*
X119500000Y-100110000D02*
X118740000Y-100110000D01*
X120260000Y-97890000D02*
X125275000Y-97890000D01*
X125275000Y-100110000D02*
X125275000Y-99307530D01*
%TO.C,C3*%
X129315835Y-76040000D02*
X129084165Y-76040000D01*
X129315835Y-76760000D02*
X129084165Y-76760000D01*
%TO.C,D3*%
X131000000Y-75600000D02*
X131000000Y-73600000D01*
X131000000Y-75600000D02*
X127150000Y-75600000D01*
X131000000Y-73600000D02*
X127150000Y-73600000D01*
%TO.C,C12*%
X135890000Y-97365835D02*
X135890000Y-97134165D01*
X136610000Y-97365835D02*
X136610000Y-97134165D01*
%TO.C,D1*%
X126600000Y-71000000D02*
X126600000Y-73000000D01*
X126600000Y-73000000D02*
X130450000Y-73000000D01*
X126600000Y-71000000D02*
X130450000Y-71000000D01*
%TO.C,C8*%
X125084165Y-80040000D02*
X125315835Y-80040000D01*
X125084165Y-80760000D02*
X125315835Y-80760000D01*
%TD*%
M02*
