M48
; DRILL file {KiCad (6.0.1)} date Wed Oct 12 14:33:54 2022
; FORMAT={-:-/ absolute / inch / decimal}
; #@! TF.CreationDate,2022-10-12T14:33:54-04:00
; #@! TF.GenerationSoftware,Kicad,Pcbnew,(6.0.1)
; #@! TF.FileFunction,Plated,1,2,PTH
FMAT,2
INCH
; #@! TA.AperFunction,Plated,PTH,ViaDrill
T1C0.0157
; #@! TA.AperFunction,Plated,PTH,ComponentDrill
T2C0.0256
%
G90
G05
T1
X4.7146Y-3.7992
X4.7402Y-3.4646
X4.748Y-3.252
X4.7559Y-2.9528
X4.7795Y-3.7402
X4.7874Y-3.189
X4.8425Y-2.8504
X4.8666Y-3.095
X4.8898Y-2.9843
X4.8898Y-3.6713
X4.8969Y-3.3632
X4.9055Y-3.5591
X4.9055Y-3.6063
X4.9449Y-3.3307
X5.0157Y-3.6614
X5.0236Y-3.2205
X5.0472Y-3.7638
X5.0787Y-3.6693
X5.0945Y-3.9213
X5.1102Y-3.4961
X5.1417Y-2.7717
X5.1491Y-3.7318
X5.1969Y-3.7244
X5.1969Y-3.8837
X5.252Y-3.1811
X5.2677Y-3.5433
X5.2854Y-3.878
X5.3622Y-3.2677
X5.3622Y-3.4488
X5.378Y-2.7795
X5.4567Y-2.8898
X5.4567Y-3.7874
X5.5591Y-2.8189
X5.5669Y-3.3622
X5.5709Y-3.189
X5.5709Y-3.5531
X5.5906Y-3.9134
X5.6614Y-3.7244
X5.6693Y-3.0
X5.748Y-3.189
X5.748Y-3.5531
X5.8425Y-3.7244
X5.8504Y-3.0
X5.9134Y-3.3622
X5.9154Y-3.189
X5.9154Y-3.5531
X5.9449Y-2.815
X5.9449Y-3.8878
X6.0531Y-2.8839
X6.0531Y-3.7992
T2
X4.7047Y-3.8976
X4.7547Y-3.8976
X4.8047Y-3.8976
X4.8547Y-3.8976
X4.9047Y-3.8976
T0
M30
