%TF.GenerationSoftware,KiCad,Pcbnew,(6.0.1)*%
%TF.CreationDate,2022-10-12T14:33:58-04:00*%
%TF.ProjectId,DeathClock,44656174-6843-46c6-9f63-6b2e6b696361,rev?*%
%TF.SameCoordinates,Original*%
%TF.FileFunction,Copper,L2,Bot*%
%TF.FilePolarity,Positive*%
%FSLAX46Y46*%
G04 Gerber Fmt 4.6, Leading zero omitted, Abs format (unit mm)*
G04 Created by KiCad (PCBNEW (6.0.1)) date 2022-10-12 14:33:58*
%MOMM*%
%LPD*%
G01*
G04 APERTURE LIST*
%TA.AperFunction,ComponentPad*%
%ADD10R,1.000000X1.000000*%
%TD*%
%TA.AperFunction,ComponentPad*%
%ADD11O,1.000000X1.000000*%
%TD*%
%TA.AperFunction,ViaPad*%
%ADD12C,0.800000*%
%TD*%
%TA.AperFunction,Conductor*%
%ADD13C,0.250000*%
%TD*%
G04 APERTURE END LIST*
D10*
%TO.P,J1,1,Pin_1*%
%TO.N,GND*%
X119500000Y-99000000D03*
D11*
%TO.P,J1,2,Pin_2*%
%TO.N,MCU_RESET*%
X120770000Y-99000000D03*
%TO.P,J1,3,Pin_3*%
%TO.N,SWDCLK*%
X122040000Y-99000000D03*
%TO.P,J1,4,Pin_4*%
%TO.N,SWDIO*%
X123310000Y-99000000D03*
%TO.P,J1,5,Pin_5*%
%TO.N,VCC*%
X124580000Y-99000000D03*
%TD*%
D12*
%TO.N,MCU_RESET*%
X130787701Y-94787701D03*
%TO.N,GND*%
X120400000Y-88000000D03*
X133800000Y-90000000D03*
X138600000Y-96200000D03*
X141200000Y-71600000D03*
X153750000Y-73250000D03*
X119750000Y-96500000D03*
X150250000Y-90250000D03*
X120600000Y-82600000D03*
X120800000Y-75000000D03*
X146000000Y-90250000D03*
X151000000Y-71500000D03*
X150200000Y-85400000D03*
X136200000Y-83000000D03*
X153750000Y-96500000D03*
X124200000Y-75800000D03*
X151000000Y-98750000D03*
X144000000Y-76200000D03*
X138600000Y-73400000D03*
X142000000Y-99400000D03*
X148400000Y-94600000D03*
X141500000Y-90250000D03*
X141500000Y-81000000D03*
X148600000Y-76200000D03*
X146000000Y-81000000D03*
X125600000Y-84600000D03*
X143800000Y-94600000D03*
X129000000Y-93200000D03*
X124200000Y-93250000D03*
X129400000Y-99600000D03*
X136200000Y-87600000D03*
X123000000Y-72400000D03*
X133400000Y-80800000D03*
X128200000Y-95600000D03*
X121400000Y-95000000D03*
X127600000Y-81800000D03*
X141400000Y-85400000D03*
X150250000Y-81000000D03*
%TO.N,/edp/edp_spi_cs*%
X124382270Y-85425500D03*
X127400000Y-93000000D03*
%TO.N,SWDIO*%
X132000000Y-98645500D03*
%TO.N,SWDCLK*%
X134250000Y-98500000D03*
%TO.N,Net-(C4-Pad2)*%
X121600000Y-81000000D03*
X123612299Y-78612299D03*
%TO.N,Net-(J2-Pad2)*%
X130600000Y-70400000D03*
X124600000Y-91600000D03*
%TO.N,Net-(J2-Pad3)*%
X124600000Y-90400000D03*
X136600000Y-70600000D03*
%TO.N,/edp/VCC_Enable*%
X129800000Y-88800000D03*
X132000000Y-94600000D03*
%TD*%
D13*
%TO.N,MCU_RESET*%
X130600000Y-94600000D02*
X125170000Y-94600000D01*
X130787701Y-94787701D02*
X130600000Y-94600000D01*
X125170000Y-94600000D02*
X120770000Y-99000000D01*
%TO.N,/edp/edp_spi_cs*%
X127400000Y-89400000D02*
X124382270Y-86382270D01*
X127400000Y-93000000D02*
X127400000Y-89400000D01*
X124382270Y-86382270D02*
X124382270Y-85425500D01*
%TO.N,SWDIO*%
X131529989Y-98175489D02*
X124134511Y-98175489D01*
X132000000Y-98645500D02*
X131529989Y-98175489D01*
X124134511Y-98175489D02*
X123310000Y-99000000D01*
%TO.N,SWDCLK*%
X133250000Y-97500000D02*
X134250000Y-98500000D01*
X122040000Y-99000000D02*
X123540000Y-97500000D01*
X123540000Y-97500000D02*
X133250000Y-97500000D01*
%TO.N,Net-(C4-Pad2)*%
X121600000Y-80624598D02*
X121600000Y-81000000D01*
X123612299Y-78612299D02*
X121600000Y-80624598D01*
%TO.N,Net-(J2-Pad2)*%
X124600000Y-91600000D02*
X120939668Y-91600000D01*
X120764282Y-70200000D02*
X130400000Y-70200000D01*
X118550480Y-72413802D02*
X120764282Y-70200000D01*
X130400000Y-70200000D02*
X130600000Y-70400000D01*
X120939668Y-91600000D02*
X118550480Y-89210811D01*
X118550480Y-89210811D02*
X118550480Y-72413802D01*
%TO.N,Net-(J2-Pad3)*%
X129950875Y-70775489D02*
X120824511Y-70775489D01*
X119000000Y-72600000D02*
X119000000Y-89024614D01*
X119000000Y-89024614D02*
X120375386Y-90400000D01*
X130375386Y-71200000D02*
X129950875Y-70775489D01*
X120824511Y-70775489D02*
X119000000Y-72600000D01*
X136600000Y-70600000D02*
X136000000Y-71200000D01*
X136000000Y-71200000D02*
X130375386Y-71200000D01*
X120375386Y-90400000D02*
X124600000Y-90400000D01*
%TO.N,/edp/VCC_Enable*%
X130600000Y-93200000D02*
X132000000Y-94600000D01*
X130600000Y-89600000D02*
X130600000Y-93200000D01*
X129800000Y-88800000D02*
X130600000Y-89600000D01*
%TD*%
%TA.AperFunction,Conductor*%
%TO.N,GND*%
G36*
X154634121Y-70128002D02*
G01*
X154680614Y-70181658D01*
X154692000Y-70234000D01*
X154692000Y-100166000D01*
X154671998Y-100234121D01*
X154618342Y-100280614D01*
X154566000Y-100292000D01*
X118634000Y-100292000D01*
X118565879Y-100271998D01*
X118519386Y-100218342D01*
X118508000Y-100166000D01*
X118508000Y-100018042D01*
X118528002Y-99949921D01*
X118581658Y-99903428D01*
X118651932Y-99893324D01*
X118709565Y-99917216D01*
X118746352Y-99944786D01*
X118761946Y-99953324D01*
X118882394Y-99998478D01*
X118897649Y-100002105D01*
X118948514Y-100007631D01*
X118955328Y-100008000D01*
X119227885Y-100008000D01*
X119243124Y-100003525D01*
X119244329Y-100002135D01*
X119246000Y-99994452D01*
X119246000Y-99989884D01*
X119754000Y-99989884D01*
X119758475Y-100005123D01*
X119759865Y-100006328D01*
X119767548Y-100007999D01*
X120044669Y-100007999D01*
X120051490Y-100007629D01*
X120102352Y-100002105D01*
X120117604Y-99998479D01*
X120238054Y-99953324D01*
X120261517Y-99940478D01*
X120262792Y-99942806D01*
X120316321Y-99922797D01*
X120364333Y-99928637D01*
X120552392Y-99989740D01*
X120748777Y-100013158D01*
X120754912Y-100012686D01*
X120754914Y-100012686D01*
X120939830Y-99998457D01*
X120939834Y-99998456D01*
X120945972Y-99997984D01*
X121136463Y-99944798D01*
X121141967Y-99942018D01*
X121141969Y-99942017D01*
X121307493Y-99858405D01*
X121307495Y-99858404D01*
X121312996Y-99855625D01*
X121317850Y-99851833D01*
X121317859Y-99851827D01*
X121326548Y-99845038D01*
X121392542Y-99818860D01*
X121465592Y-99834339D01*
X121634294Y-99928624D01*
X121822392Y-99989740D01*
X122018777Y-100013158D01*
X122024912Y-100012686D01*
X122024914Y-100012686D01*
X122209830Y-99998457D01*
X122209834Y-99998456D01*
X122215972Y-99997984D01*
X122406463Y-99944798D01*
X122411967Y-99942018D01*
X122411969Y-99942017D01*
X122577493Y-99858405D01*
X122577495Y-99858404D01*
X122582996Y-99855625D01*
X122587850Y-99851833D01*
X122587859Y-99851827D01*
X122596548Y-99845038D01*
X122662542Y-99818860D01*
X122735592Y-99834339D01*
X122904294Y-99928624D01*
X123092392Y-99989740D01*
X123288777Y-100013158D01*
X123294912Y-100012686D01*
X123294914Y-100012686D01*
X123479830Y-99998457D01*
X123479834Y-99998456D01*
X123485972Y-99997984D01*
X123676463Y-99944798D01*
X123681967Y-99942018D01*
X123681969Y-99942017D01*
X123847493Y-99858405D01*
X123847495Y-99858404D01*
X123852996Y-99855625D01*
X123857850Y-99851833D01*
X123857859Y-99851827D01*
X123866548Y-99845038D01*
X123932542Y-99818860D01*
X124005592Y-99834339D01*
X124174294Y-99928624D01*
X124362392Y-99989740D01*
X124558777Y-100013158D01*
X124564912Y-100012686D01*
X124564914Y-100012686D01*
X124749830Y-99998457D01*
X124749834Y-99998456D01*
X124755972Y-99997984D01*
X124946463Y-99944798D01*
X124951967Y-99942018D01*
X124951969Y-99942017D01*
X125117495Y-99858404D01*
X125117497Y-99858403D01*
X125122996Y-99855625D01*
X125278847Y-99733861D01*
X125408078Y-99584145D01*
X125505769Y-99412179D01*
X125568197Y-99224513D01*
X125592985Y-99028295D01*
X125593380Y-99000000D01*
X125588211Y-98947284D01*
X125601470Y-98877537D01*
X125650333Y-98826030D01*
X125713610Y-98808989D01*
X131006323Y-98808989D01*
X131074444Y-98828991D01*
X131120937Y-98882647D01*
X131126156Y-98896052D01*
X131165473Y-99017056D01*
X131260960Y-99182444D01*
X131265378Y-99187351D01*
X131265379Y-99187352D01*
X131298839Y-99224513D01*
X131388747Y-99324366D01*
X131543248Y-99436618D01*
X131549276Y-99439302D01*
X131549278Y-99439303D01*
X131711681Y-99511609D01*
X131717712Y-99514294D01*
X131811113Y-99534147D01*
X131898056Y-99552628D01*
X131898061Y-99552628D01*
X131904513Y-99554000D01*
X132095487Y-99554000D01*
X132101939Y-99552628D01*
X132101944Y-99552628D01*
X132188887Y-99534147D01*
X132282288Y-99514294D01*
X132288319Y-99511609D01*
X132450722Y-99439303D01*
X132450724Y-99439302D01*
X132456752Y-99436618D01*
X132611253Y-99324366D01*
X132701161Y-99224513D01*
X132734621Y-99187352D01*
X132734622Y-99187351D01*
X132739040Y-99182444D01*
X132834527Y-99017056D01*
X132893542Y-98835428D01*
X132908835Y-98689928D01*
X132912814Y-98652065D01*
X132913504Y-98645500D01*
X132893542Y-98455572D01*
X132855438Y-98338301D01*
X132853410Y-98267334D01*
X132890073Y-98206536D01*
X132953785Y-98175210D01*
X133024319Y-98183303D01*
X133064366Y-98210270D01*
X133302878Y-98448782D01*
X133336904Y-98511094D01*
X133339092Y-98524703D01*
X133356458Y-98689928D01*
X133415473Y-98871556D01*
X133510960Y-99036944D01*
X133638747Y-99178866D01*
X133793248Y-99291118D01*
X133799276Y-99293802D01*
X133799278Y-99293803D01*
X133961681Y-99366109D01*
X133967712Y-99368794D01*
X134061113Y-99388647D01*
X134148056Y-99407128D01*
X134148061Y-99407128D01*
X134154513Y-99408500D01*
X134345487Y-99408500D01*
X134351939Y-99407128D01*
X134351944Y-99407128D01*
X134438887Y-99388647D01*
X134532288Y-99368794D01*
X134538319Y-99366109D01*
X134700722Y-99293803D01*
X134700724Y-99293802D01*
X134706752Y-99291118D01*
X134861253Y-99178866D01*
X134989040Y-99036944D01*
X135084527Y-98871556D01*
X135143542Y-98689928D01*
X135163504Y-98500000D01*
X135159524Y-98462135D01*
X135144232Y-98316635D01*
X135144232Y-98316633D01*
X135143542Y-98310072D01*
X135084527Y-98128444D01*
X134989040Y-97963056D01*
X134861253Y-97821134D01*
X134706752Y-97708882D01*
X134700724Y-97706198D01*
X134700722Y-97706197D01*
X134538319Y-97633891D01*
X134538318Y-97633891D01*
X134532288Y-97631206D01*
X134438887Y-97611353D01*
X134351944Y-97592872D01*
X134351939Y-97592872D01*
X134345487Y-97591500D01*
X134289595Y-97591500D01*
X134221474Y-97571498D01*
X134200499Y-97554595D01*
X133753647Y-97107742D01*
X133746113Y-97099463D01*
X133742000Y-97092982D01*
X133692348Y-97046356D01*
X133689507Y-97043602D01*
X133669770Y-97023865D01*
X133666573Y-97021385D01*
X133657551Y-97013680D01*
X133631100Y-96988841D01*
X133625321Y-96983414D01*
X133618375Y-96979595D01*
X133618372Y-96979593D01*
X133607566Y-96973652D01*
X133591047Y-96962801D01*
X133590583Y-96962441D01*
X133575041Y-96950386D01*
X133567772Y-96947241D01*
X133567768Y-96947238D01*
X133534463Y-96932826D01*
X133523813Y-96927609D01*
X133485060Y-96906305D01*
X133465437Y-96901267D01*
X133446734Y-96894863D01*
X133435420Y-96889967D01*
X133435419Y-96889967D01*
X133428145Y-96886819D01*
X133420322Y-96885580D01*
X133420312Y-96885577D01*
X133384476Y-96879901D01*
X133372856Y-96877495D01*
X133337711Y-96868472D01*
X133337710Y-96868472D01*
X133330030Y-96866500D01*
X133309776Y-96866500D01*
X133290065Y-96864949D01*
X133277886Y-96863020D01*
X133270057Y-96861780D01*
X133262165Y-96862526D01*
X133226039Y-96865941D01*
X133214181Y-96866500D01*
X124103594Y-96866500D01*
X124035473Y-96846498D01*
X123988980Y-96792842D01*
X123978876Y-96722568D01*
X124008370Y-96657988D01*
X124014499Y-96651405D01*
X125395499Y-95270405D01*
X125457811Y-95236379D01*
X125484594Y-95233500D01*
X129923292Y-95233500D01*
X129991413Y-95253502D01*
X130032410Y-95296499D01*
X130045357Y-95318923D01*
X130048661Y-95324645D01*
X130176448Y-95466567D01*
X130330949Y-95578819D01*
X130336977Y-95581503D01*
X130336979Y-95581504D01*
X130499382Y-95653810D01*
X130505413Y-95656495D01*
X130598813Y-95676348D01*
X130685757Y-95694829D01*
X130685762Y-95694829D01*
X130692214Y-95696201D01*
X130883188Y-95696201D01*
X130889640Y-95694829D01*
X130889645Y-95694829D01*
X130976589Y-95676348D01*
X131069989Y-95656495D01*
X131076020Y-95653810D01*
X131238423Y-95581504D01*
X131238425Y-95581503D01*
X131244453Y-95578819D01*
X131398954Y-95466567D01*
X131403365Y-95461668D01*
X131403374Y-95461660D01*
X131427485Y-95434881D01*
X131487931Y-95397641D01*
X131558914Y-95398993D01*
X131572370Y-95404084D01*
X131701689Y-95461660D01*
X131717712Y-95468794D01*
X131811113Y-95488647D01*
X131898056Y-95507128D01*
X131898061Y-95507128D01*
X131904513Y-95508500D01*
X132095487Y-95508500D01*
X132101939Y-95507128D01*
X132101944Y-95507128D01*
X132188887Y-95488647D01*
X132282288Y-95468794D01*
X132288319Y-95466109D01*
X132450722Y-95393803D01*
X132450724Y-95393802D01*
X132456752Y-95391118D01*
X132611253Y-95278866D01*
X132634091Y-95253502D01*
X132734621Y-95141852D01*
X132734622Y-95141851D01*
X132739040Y-95136944D01*
X132834527Y-94971556D01*
X132893542Y-94789928D01*
X132913504Y-94600000D01*
X132893542Y-94410072D01*
X132834527Y-94228444D01*
X132739040Y-94063056D01*
X132722881Y-94045109D01*
X132615675Y-93926045D01*
X132615674Y-93926044D01*
X132611253Y-93921134D01*
X132456752Y-93808882D01*
X132450724Y-93806198D01*
X132450722Y-93806197D01*
X132288319Y-93733891D01*
X132288318Y-93733891D01*
X132282288Y-93731206D01*
X132188888Y-93711353D01*
X132101944Y-93692872D01*
X132101939Y-93692872D01*
X132095487Y-93691500D01*
X132039595Y-93691500D01*
X131971474Y-93671498D01*
X131950499Y-93654595D01*
X131270404Y-92974499D01*
X131236379Y-92912187D01*
X131233500Y-92885404D01*
X131233500Y-89678767D01*
X131234027Y-89667584D01*
X131235702Y-89660091D01*
X131233562Y-89592000D01*
X131233500Y-89588043D01*
X131233500Y-89560144D01*
X131232996Y-89556153D01*
X131232063Y-89544311D01*
X131230923Y-89508036D01*
X131230674Y-89500111D01*
X131228462Y-89492497D01*
X131228461Y-89492492D01*
X131225023Y-89480659D01*
X131221012Y-89461295D01*
X131219467Y-89449064D01*
X131218474Y-89441203D01*
X131215557Y-89433836D01*
X131215556Y-89433831D01*
X131202198Y-89400092D01*
X131198354Y-89388865D01*
X131188866Y-89356211D01*
X131186018Y-89346407D01*
X131181697Y-89339100D01*
X131175707Y-89328972D01*
X131167012Y-89311224D01*
X131159552Y-89292383D01*
X131133564Y-89256613D01*
X131127048Y-89246693D01*
X131108580Y-89215465D01*
X131108578Y-89215462D01*
X131104542Y-89208638D01*
X131090221Y-89194317D01*
X131077380Y-89179283D01*
X131070131Y-89169306D01*
X131065472Y-89162893D01*
X131059367Y-89157842D01*
X131059362Y-89157837D01*
X131031402Y-89134706D01*
X131022624Y-89126719D01*
X130885833Y-88989928D01*
X130747122Y-88851218D01*
X130713097Y-88788905D01*
X130710907Y-88775292D01*
X130694232Y-88616635D01*
X130694232Y-88616633D01*
X130693542Y-88610072D01*
X130634527Y-88428444D01*
X130539040Y-88263056D01*
X130411253Y-88121134D01*
X130256752Y-88008882D01*
X130250724Y-88006198D01*
X130250722Y-88006197D01*
X130088319Y-87933891D01*
X130088318Y-87933891D01*
X130082288Y-87931206D01*
X129988888Y-87911353D01*
X129901944Y-87892872D01*
X129901939Y-87892872D01*
X129895487Y-87891500D01*
X129704513Y-87891500D01*
X129698061Y-87892872D01*
X129698056Y-87892872D01*
X129611113Y-87911353D01*
X129517712Y-87931206D01*
X129511682Y-87933891D01*
X129511681Y-87933891D01*
X129349278Y-88006197D01*
X129349276Y-88006198D01*
X129343248Y-88008882D01*
X129188747Y-88121134D01*
X129060960Y-88263056D01*
X128965473Y-88428444D01*
X128906458Y-88610072D01*
X128886496Y-88800000D01*
X128887186Y-88806565D01*
X128904291Y-88969306D01*
X128906458Y-88989928D01*
X128965473Y-89171556D01*
X128968776Y-89177278D01*
X128968777Y-89177279D01*
X128975466Y-89188865D01*
X129060960Y-89336944D01*
X129065378Y-89341851D01*
X129065379Y-89341852D01*
X129148197Y-89433831D01*
X129188747Y-89478866D01*
X129343248Y-89591118D01*
X129349276Y-89593802D01*
X129349278Y-89593803D01*
X129511681Y-89666109D01*
X129517712Y-89668794D01*
X129611112Y-89688647D01*
X129698056Y-89707128D01*
X129698061Y-89707128D01*
X129704513Y-89708500D01*
X129760405Y-89708500D01*
X129828526Y-89728502D01*
X129849500Y-89745405D01*
X129929595Y-89825500D01*
X129963621Y-89887812D01*
X129966500Y-89914595D01*
X129966500Y-93121233D01*
X129965973Y-93132416D01*
X129964298Y-93139909D01*
X129964547Y-93147835D01*
X129964547Y-93147836D01*
X129966438Y-93207986D01*
X129966500Y-93211945D01*
X129966500Y-93239856D01*
X129966997Y-93243790D01*
X129966997Y-93243791D01*
X129967005Y-93243856D01*
X129967938Y-93255693D01*
X129969327Y-93299889D01*
X129974978Y-93319339D01*
X129978987Y-93338700D01*
X129981526Y-93358797D01*
X129984445Y-93366168D01*
X129984445Y-93366170D01*
X129997804Y-93399912D01*
X130001649Y-93411142D01*
X130013982Y-93453593D01*
X130018015Y-93460412D01*
X130018017Y-93460417D01*
X130024293Y-93471028D01*
X130032988Y-93488776D01*
X130040448Y-93507617D01*
X130045110Y-93514033D01*
X130045110Y-93514034D01*
X130066436Y-93543387D01*
X130072952Y-93553307D01*
X130095458Y-93591362D01*
X130109779Y-93605683D01*
X130122619Y-93620716D01*
X130134528Y-93637107D01*
X130168605Y-93665298D01*
X130177384Y-93673288D01*
X130255501Y-93751405D01*
X130289527Y-93813717D01*
X130284462Y-93884532D01*
X130241915Y-93941368D01*
X130175395Y-93966179D01*
X130166406Y-93966500D01*
X128003147Y-93966500D01*
X127935026Y-93946498D01*
X127888533Y-93892842D01*
X127878429Y-93822568D01*
X127907923Y-93757988D01*
X127929086Y-93738564D01*
X128005909Y-93682749D01*
X128005911Y-93682747D01*
X128011253Y-93678866D01*
X128015675Y-93673955D01*
X128134621Y-93541852D01*
X128134622Y-93541851D01*
X128139040Y-93536944D01*
X128234527Y-93371556D01*
X128293542Y-93189928D01*
X128313504Y-93000000D01*
X128293542Y-92810072D01*
X128234527Y-92628444D01*
X128139040Y-92463056D01*
X128065863Y-92381785D01*
X128035147Y-92317779D01*
X128033500Y-92297476D01*
X128033500Y-89478768D01*
X128034027Y-89467585D01*
X128035702Y-89460092D01*
X128035356Y-89449064D01*
X128033562Y-89392002D01*
X128033500Y-89388044D01*
X128033500Y-89360144D01*
X128032996Y-89356153D01*
X128032063Y-89344311D01*
X128031915Y-89339581D01*
X128030674Y-89300111D01*
X128028462Y-89292497D01*
X128028461Y-89292492D01*
X128025023Y-89280659D01*
X128021012Y-89261295D01*
X128019467Y-89249064D01*
X128018474Y-89241203D01*
X128015557Y-89233836D01*
X128015556Y-89233831D01*
X128002198Y-89200092D01*
X127998354Y-89188865D01*
X127990808Y-89162893D01*
X127986018Y-89146407D01*
X127975707Y-89128972D01*
X127967012Y-89111224D01*
X127959552Y-89092383D01*
X127933564Y-89056613D01*
X127927048Y-89046693D01*
X127908580Y-89015465D01*
X127908578Y-89015462D01*
X127904542Y-89008638D01*
X127890221Y-88994317D01*
X127877380Y-88979283D01*
X127870131Y-88969306D01*
X127865472Y-88962893D01*
X127831395Y-88934702D01*
X127822616Y-88926712D01*
X125081268Y-86185363D01*
X125047242Y-86123051D01*
X125052307Y-86052235D01*
X125076724Y-86011961D01*
X125121310Y-85962444D01*
X125216797Y-85797056D01*
X125275812Y-85615428D01*
X125295774Y-85425500D01*
X125275812Y-85235572D01*
X125216797Y-85053944D01*
X125121310Y-84888556D01*
X124993523Y-84746634D01*
X124839022Y-84634382D01*
X124832994Y-84631698D01*
X124832992Y-84631697D01*
X124670589Y-84559391D01*
X124670588Y-84559391D01*
X124664558Y-84556706D01*
X124571157Y-84536853D01*
X124484214Y-84518372D01*
X124484209Y-84518372D01*
X124477757Y-84517000D01*
X124286783Y-84517000D01*
X124280331Y-84518372D01*
X124280326Y-84518372D01*
X124193383Y-84536853D01*
X124099982Y-84556706D01*
X124093952Y-84559391D01*
X124093951Y-84559391D01*
X123931548Y-84631697D01*
X123931546Y-84631698D01*
X123925518Y-84634382D01*
X123771017Y-84746634D01*
X123643230Y-84888556D01*
X123547743Y-85053944D01*
X123488728Y-85235572D01*
X123468766Y-85425500D01*
X123488728Y-85615428D01*
X123547743Y-85797056D01*
X123643230Y-85962444D01*
X123716407Y-86043715D01*
X123747123Y-86107721D01*
X123748770Y-86128024D01*
X123748770Y-86303503D01*
X123748243Y-86314686D01*
X123746568Y-86322179D01*
X123746817Y-86330105D01*
X123746817Y-86330106D01*
X123748708Y-86390256D01*
X123748770Y-86394215D01*
X123748770Y-86422126D01*
X123749267Y-86426060D01*
X123749267Y-86426061D01*
X123749275Y-86426126D01*
X123750208Y-86437963D01*
X123751597Y-86482159D01*
X123757248Y-86501609D01*
X123761257Y-86520970D01*
X123763796Y-86541067D01*
X123766715Y-86548438D01*
X123766715Y-86548440D01*
X123780074Y-86582182D01*
X123783919Y-86593412D01*
X123796252Y-86635863D01*
X123800285Y-86642682D01*
X123800287Y-86642687D01*
X123806563Y-86653298D01*
X123815258Y-86671046D01*
X123822718Y-86689887D01*
X123827380Y-86696303D01*
X123827380Y-86696304D01*
X123848706Y-86725657D01*
X123855222Y-86735577D01*
X123877728Y-86773632D01*
X123892049Y-86787953D01*
X123904889Y-86802986D01*
X123916798Y-86819377D01*
X123922904Y-86824428D01*
X123950875Y-86847568D01*
X123959654Y-86855558D01*
X126729595Y-89625499D01*
X126763621Y-89687811D01*
X126766500Y-89714594D01*
X126766500Y-92297476D01*
X126746498Y-92365597D01*
X126734142Y-92381779D01*
X126660960Y-92463056D01*
X126565473Y-92628444D01*
X126506458Y-92810072D01*
X126486496Y-93000000D01*
X126506458Y-93189928D01*
X126565473Y-93371556D01*
X126660960Y-93536944D01*
X126665378Y-93541851D01*
X126665379Y-93541852D01*
X126784325Y-93673955D01*
X126788747Y-93678866D01*
X126794089Y-93682747D01*
X126794091Y-93682749D01*
X126870914Y-93738564D01*
X126914268Y-93794786D01*
X126920343Y-93865523D01*
X126887211Y-93928314D01*
X126825391Y-93963226D01*
X126796853Y-93966500D01*
X125248768Y-93966500D01*
X125237585Y-93965973D01*
X125230092Y-93964298D01*
X125222166Y-93964547D01*
X125222165Y-93964547D01*
X125162002Y-93966438D01*
X125158044Y-93966500D01*
X125130144Y-93966500D01*
X125126154Y-93967004D01*
X125114320Y-93967936D01*
X125070111Y-93969326D01*
X125062495Y-93971539D01*
X125062493Y-93971539D01*
X125050652Y-93974979D01*
X125031293Y-93978988D01*
X125029983Y-93979154D01*
X125011203Y-93981526D01*
X125003837Y-93984442D01*
X125003831Y-93984444D01*
X124970098Y-93997800D01*
X124958868Y-94001645D01*
X124924017Y-94011770D01*
X124916407Y-94013981D01*
X124909584Y-94018016D01*
X124898966Y-94024295D01*
X124881213Y-94032992D01*
X124873568Y-94036019D01*
X124862383Y-94040448D01*
X124855968Y-94045109D01*
X124826612Y-94066437D01*
X124816695Y-94072951D01*
X124778638Y-94095458D01*
X124764317Y-94109779D01*
X124749284Y-94122619D01*
X124732893Y-94134528D01*
X124727842Y-94140634D01*
X124704702Y-94168605D01*
X124696712Y-94177384D01*
X120919450Y-97954645D01*
X120857138Y-97988671D01*
X120817187Y-97990860D01*
X120783207Y-97987289D01*
X120783202Y-97987289D01*
X120777075Y-97986645D01*
X120714179Y-97992369D01*
X120586251Y-98004011D01*
X120586248Y-98004012D01*
X120580112Y-98004570D01*
X120574206Y-98006308D01*
X120574202Y-98006309D01*
X120396293Y-98058670D01*
X120390381Y-98060410D01*
X120384916Y-98063267D01*
X120384304Y-98063587D01*
X120383950Y-98063657D01*
X120379209Y-98065573D01*
X120378845Y-98064672D01*
X120314668Y-98077422D01*
X120262645Y-98057462D01*
X120261517Y-98059522D01*
X120238054Y-98046676D01*
X120117606Y-98001522D01*
X120102351Y-97997895D01*
X120051486Y-97992369D01*
X120044672Y-97992000D01*
X119772115Y-97992000D01*
X119756876Y-97996475D01*
X119755671Y-97997865D01*
X119754000Y-98005548D01*
X119754000Y-99989884D01*
X119246000Y-99989884D01*
X119246000Y-98010116D01*
X119241525Y-97994877D01*
X119240135Y-97993672D01*
X119232452Y-97992001D01*
X118955331Y-97992001D01*
X118948510Y-97992371D01*
X118897648Y-97997895D01*
X118882396Y-98001521D01*
X118761946Y-98046676D01*
X118746352Y-98055214D01*
X118709565Y-98082784D01*
X118643059Y-98107632D01*
X118573676Y-98092579D01*
X118523446Y-98042405D01*
X118508000Y-97981958D01*
X118508000Y-90368426D01*
X118528002Y-90300305D01*
X118581658Y-90253812D01*
X118651932Y-90243708D01*
X118716512Y-90273202D01*
X118723093Y-90279328D01*
X119209035Y-90765271D01*
X120436021Y-91992258D01*
X120443555Y-92000537D01*
X120447668Y-92007018D01*
X120497319Y-92053643D01*
X120500161Y-92056398D01*
X120519898Y-92076135D01*
X120523095Y-92078615D01*
X120532115Y-92086318D01*
X120564347Y-92116586D01*
X120571293Y-92120405D01*
X120571296Y-92120407D01*
X120582102Y-92126348D01*
X120598621Y-92137199D01*
X120614627Y-92149614D01*
X120621896Y-92152759D01*
X120621900Y-92152762D01*
X120655205Y-92167174D01*
X120665855Y-92172391D01*
X120704608Y-92193695D01*
X120712283Y-92195666D01*
X120712284Y-92195666D01*
X120724230Y-92198733D01*
X120742935Y-92205137D01*
X120761523Y-92213181D01*
X120769346Y-92214420D01*
X120769356Y-92214423D01*
X120805192Y-92220099D01*
X120816812Y-92222505D01*
X120851957Y-92231528D01*
X120859638Y-92233500D01*
X120879892Y-92233500D01*
X120899602Y-92235051D01*
X120919611Y-92238220D01*
X120927503Y-92237474D01*
X120963629Y-92234059D01*
X120975487Y-92233500D01*
X123891800Y-92233500D01*
X123959921Y-92253502D01*
X123979147Y-92269843D01*
X123979420Y-92269540D01*
X123984332Y-92273963D01*
X123988747Y-92278866D01*
X124143248Y-92391118D01*
X124149276Y-92393802D01*
X124149278Y-92393803D01*
X124304824Y-92463056D01*
X124317712Y-92468794D01*
X124411113Y-92488647D01*
X124498056Y-92507128D01*
X124498061Y-92507128D01*
X124504513Y-92508500D01*
X124695487Y-92508500D01*
X124701939Y-92507128D01*
X124701944Y-92507128D01*
X124788888Y-92488647D01*
X124882288Y-92468794D01*
X124895176Y-92463056D01*
X125050722Y-92393803D01*
X125050724Y-92393802D01*
X125056752Y-92391118D01*
X125211253Y-92278866D01*
X125247851Y-92238220D01*
X125334621Y-92141852D01*
X125334622Y-92141851D01*
X125339040Y-92136944D01*
X125434527Y-91971556D01*
X125493542Y-91789928D01*
X125513504Y-91600000D01*
X125493542Y-91410072D01*
X125434527Y-91228444D01*
X125339040Y-91063056D01*
X125341777Y-91061476D01*
X125322351Y-91007653D01*
X125338178Y-90938443D01*
X125339114Y-90936987D01*
X125339040Y-90936944D01*
X125431223Y-90777279D01*
X125431224Y-90777278D01*
X125434527Y-90771556D01*
X125493542Y-90589928D01*
X125513504Y-90400000D01*
X125512814Y-90393435D01*
X125494232Y-90216635D01*
X125494232Y-90216633D01*
X125493542Y-90210072D01*
X125434527Y-90028444D01*
X125339040Y-89863056D01*
X125305225Y-89825500D01*
X125215675Y-89726045D01*
X125215674Y-89726044D01*
X125211253Y-89721134D01*
X125056752Y-89608882D01*
X125050724Y-89606198D01*
X125050722Y-89606197D01*
X124888319Y-89533891D01*
X124888318Y-89533891D01*
X124882288Y-89531206D01*
X124788887Y-89511353D01*
X124701944Y-89492872D01*
X124701939Y-89492872D01*
X124695487Y-89491500D01*
X124504513Y-89491500D01*
X124498061Y-89492872D01*
X124498056Y-89492872D01*
X124411113Y-89511353D01*
X124317712Y-89531206D01*
X124311682Y-89533891D01*
X124311681Y-89533891D01*
X124149278Y-89606197D01*
X124149276Y-89606198D01*
X124143248Y-89608882D01*
X124137907Y-89612762D01*
X124137906Y-89612763D01*
X124059206Y-89669942D01*
X123988747Y-89721134D01*
X123984332Y-89726037D01*
X123979420Y-89730460D01*
X123978295Y-89729211D01*
X123924986Y-89762051D01*
X123891800Y-89766500D01*
X120689980Y-89766500D01*
X120621859Y-89746498D01*
X120600889Y-89729599D01*
X119670403Y-88799112D01*
X119636379Y-88736802D01*
X119633500Y-88710019D01*
X119633500Y-81000000D01*
X120686496Y-81000000D01*
X120706458Y-81189928D01*
X120765473Y-81371556D01*
X120860960Y-81536944D01*
X120988747Y-81678866D01*
X121143248Y-81791118D01*
X121149276Y-81793802D01*
X121149278Y-81793803D01*
X121311681Y-81866109D01*
X121317712Y-81868794D01*
X121411113Y-81888647D01*
X121498056Y-81907128D01*
X121498061Y-81907128D01*
X121504513Y-81908500D01*
X121695487Y-81908500D01*
X121701939Y-81907128D01*
X121701944Y-81907128D01*
X121788887Y-81888647D01*
X121882288Y-81868794D01*
X121888319Y-81866109D01*
X122050722Y-81793803D01*
X122050724Y-81793802D01*
X122056752Y-81791118D01*
X122211253Y-81678866D01*
X122339040Y-81536944D01*
X122434527Y-81371556D01*
X122493542Y-81189928D01*
X122513504Y-81000000D01*
X122493542Y-80810072D01*
X122472496Y-80745299D01*
X122470469Y-80674331D01*
X122503234Y-80617268D01*
X123562798Y-79557704D01*
X123625110Y-79523678D01*
X123651893Y-79520799D01*
X123707786Y-79520799D01*
X123714238Y-79519427D01*
X123714243Y-79519427D01*
X123801186Y-79500946D01*
X123894587Y-79481093D01*
X123900618Y-79478408D01*
X124063021Y-79406102D01*
X124063023Y-79406101D01*
X124069051Y-79403417D01*
X124223552Y-79291165D01*
X124351339Y-79149243D01*
X124446826Y-78983855D01*
X124505841Y-78802227D01*
X124525803Y-78612299D01*
X124505841Y-78422371D01*
X124446826Y-78240743D01*
X124351339Y-78075355D01*
X124223552Y-77933433D01*
X124069051Y-77821181D01*
X124063023Y-77818497D01*
X124063021Y-77818496D01*
X123900618Y-77746190D01*
X123900617Y-77746190D01*
X123894587Y-77743505D01*
X123801187Y-77723652D01*
X123714243Y-77705171D01*
X123714238Y-77705171D01*
X123707786Y-77703799D01*
X123516812Y-77703799D01*
X123510360Y-77705171D01*
X123510355Y-77705171D01*
X123423411Y-77723652D01*
X123330011Y-77743505D01*
X123323981Y-77746190D01*
X123323980Y-77746190D01*
X123161577Y-77818496D01*
X123161575Y-77818497D01*
X123155547Y-77821181D01*
X123001046Y-77933433D01*
X122873259Y-78075355D01*
X122777772Y-78240743D01*
X122718757Y-78422371D01*
X122718067Y-78428932D01*
X122718067Y-78428934D01*
X122701392Y-78587592D01*
X122674379Y-78653249D01*
X122665177Y-78663517D01*
X121207747Y-80120946D01*
X121199461Y-80128486D01*
X121192982Y-80132598D01*
X121187557Y-80138375D01*
X121146357Y-80182249D01*
X121143602Y-80185091D01*
X121123865Y-80204828D01*
X121121385Y-80208025D01*
X121113682Y-80217045D01*
X121083414Y-80249277D01*
X121082428Y-80248351D01*
X121065134Y-80265635D01*
X121023195Y-80296106D01*
X120988747Y-80321134D01*
X120860960Y-80463056D01*
X120765473Y-80628444D01*
X120706458Y-80810072D01*
X120686496Y-81000000D01*
X119633500Y-81000000D01*
X119633500Y-72914594D01*
X119653502Y-72846473D01*
X119670405Y-72825499D01*
X121050010Y-71445894D01*
X121112322Y-71411868D01*
X121139105Y-71408989D01*
X129636281Y-71408989D01*
X129704402Y-71428991D01*
X129725376Y-71445894D01*
X129871729Y-71592247D01*
X129879273Y-71600537D01*
X129883386Y-71607018D01*
X129889163Y-71612443D01*
X129933053Y-71653658D01*
X129935895Y-71656413D01*
X129955616Y-71676134D01*
X129958811Y-71678612D01*
X129967833Y-71686318D01*
X130000065Y-71716586D01*
X130007014Y-71720406D01*
X130017818Y-71726346D01*
X130034342Y-71737199D01*
X130050345Y-71749613D01*
X130090929Y-71767176D01*
X130101559Y-71772383D01*
X130140326Y-71793695D01*
X130148003Y-71795666D01*
X130148008Y-71795668D01*
X130159944Y-71798732D01*
X130178652Y-71805137D01*
X130197241Y-71813181D01*
X130205069Y-71814421D01*
X130205076Y-71814423D01*
X130240910Y-71820099D01*
X130252530Y-71822505D01*
X130284345Y-71830673D01*
X130295356Y-71833500D01*
X130315610Y-71833500D01*
X130335320Y-71835051D01*
X130355329Y-71838220D01*
X130363221Y-71837474D01*
X130381966Y-71835702D01*
X130399348Y-71834059D01*
X130411205Y-71833500D01*
X135921233Y-71833500D01*
X135932416Y-71834027D01*
X135939909Y-71835702D01*
X135947835Y-71835453D01*
X135947836Y-71835453D01*
X136007986Y-71833562D01*
X136011945Y-71833500D01*
X136039856Y-71833500D01*
X136043791Y-71833003D01*
X136043856Y-71832995D01*
X136055693Y-71832062D01*
X136087951Y-71831048D01*
X136091970Y-71830922D01*
X136099889Y-71830673D01*
X136119343Y-71825021D01*
X136138700Y-71821013D01*
X136150930Y-71819468D01*
X136150931Y-71819468D01*
X136158797Y-71818474D01*
X136166168Y-71815555D01*
X136166170Y-71815555D01*
X136199912Y-71802196D01*
X136211142Y-71798351D01*
X136245983Y-71788229D01*
X136245984Y-71788229D01*
X136253593Y-71786018D01*
X136260412Y-71781985D01*
X136260417Y-71781983D01*
X136271028Y-71775707D01*
X136288776Y-71767012D01*
X136307617Y-71759552D01*
X136327987Y-71744753D01*
X136343387Y-71733564D01*
X136353307Y-71727048D01*
X136384535Y-71708580D01*
X136384538Y-71708578D01*
X136391362Y-71704542D01*
X136405683Y-71690221D01*
X136420717Y-71677380D01*
X136422432Y-71676134D01*
X136437107Y-71665472D01*
X136465298Y-71631395D01*
X136473288Y-71622616D01*
X136550499Y-71545405D01*
X136612811Y-71511379D01*
X136639594Y-71508500D01*
X136695487Y-71508500D01*
X136701939Y-71507128D01*
X136701944Y-71507128D01*
X136788888Y-71488647D01*
X136882288Y-71468794D01*
X136888319Y-71466109D01*
X137050722Y-71393803D01*
X137050724Y-71393802D01*
X137056752Y-71391118D01*
X137079979Y-71374243D01*
X137138539Y-71331696D01*
X137211253Y-71278866D01*
X137339040Y-71136944D01*
X137434527Y-70971556D01*
X137493542Y-70789928D01*
X137513504Y-70600000D01*
X137493542Y-70410072D01*
X137448983Y-70272934D01*
X137446955Y-70201969D01*
X137483617Y-70141171D01*
X137547330Y-70109846D01*
X137568816Y-70108000D01*
X154566000Y-70108000D01*
X154634121Y-70128002D01*
G37*
%TD.AperFunction*%
%TD*%
M02*
