%TF.GenerationSoftware,KiCad,Pcbnew,(6.0.1)*%
%TF.CreationDate,2022-10-12T14:33:58-04:00*%
%TF.ProjectId,DeathClock,44656174-6843-46c6-9f63-6b2e6b696361,rev?*%
%TF.SameCoordinates,Original*%
%TF.FileFunction,Paste,Top*%
%TF.FilePolarity,Positive*%
%FSLAX46Y46*%
G04 Gerber Fmt 4.6, Leading zero omitted, Abs format (unit mm)*
G04 Created by KiCad (PCBNEW (6.0.1)) date 2022-10-12 14:33:58*
%MOMM*%
%LPD*%
G01*
G04 APERTURE LIST*
G04 Aperture macros list*
%AMRoundRect*
0 Rectangle with rounded corners*
0 $1 Rounding radius*
0 $2 $3 $4 $5 $6 $7 $8 $9 X,Y pos of 4 corners*
0 Add a 4 corners polygon primitive as box body*
4,1,4,$2,$3,$4,$5,$6,$7,$8,$9,$2,$3,0*
0 Add four circle primitives for the rounded corners*
1,1,$1+$1,$2,$3*
1,1,$1+$1,$4,$5*
1,1,$1+$1,$6,$7*
1,1,$1+$1,$8,$9*
0 Add four rect primitives between the rounded corners*
20,1,$1+$1,$2,$3,$4,$5,0*
20,1,$1+$1,$4,$5,$6,$7,0*
20,1,$1+$1,$6,$7,$8,$9,0*
20,1,$1+$1,$8,$9,$2,$3,0*%
G04 Aperture macros list end*
%ADD10RoundRect,0.075000X-0.575000X0.075000X-0.575000X-0.075000X0.575000X-0.075000X0.575000X0.075000X0*%
%ADD11RoundRect,0.450000X-0.650000X0.450000X-0.650000X-0.450000X0.650000X-0.450000X0.650000X0.450000X0*%
%ADD12RoundRect,0.155000X0.212500X0.155000X-0.212500X0.155000X-0.212500X-0.155000X0.212500X-0.155000X0*%
%ADD13RoundRect,0.150000X-0.587500X-0.150000X0.587500X-0.150000X0.587500X0.150000X-0.587500X0.150000X0*%
%ADD14R,0.355600X1.473200*%
%ADD15RoundRect,0.155000X0.155000X-0.212500X0.155000X0.212500X-0.155000X0.212500X-0.155000X-0.212500X0*%
%ADD16R,1.100000X1.050000*%
%ADD17RoundRect,0.155000X-0.212500X-0.155000X0.212500X-0.155000X0.212500X0.155000X-0.212500X0.155000X0*%
%ADD18RoundRect,0.160000X0.197500X0.160000X-0.197500X0.160000X-0.197500X-0.160000X0.197500X-0.160000X0*%
%ADD19RoundRect,0.562500X0.937500X0.562500X-0.937500X0.562500X-0.937500X-0.562500X0.937500X-0.562500X0*%
%ADD20RoundRect,0.562500X-0.562500X0.937500X-0.562500X-0.937500X0.562500X-0.937500X0.562500X0.937500X0*%
%ADD21RoundRect,1.250000X-1.250000X1.250000X-1.250000X-1.250000X1.250000X-1.250000X1.250000X1.250000X0*%
%ADD22RoundRect,0.150000X0.587500X0.150000X-0.587500X0.150000X-0.587500X-0.150000X0.587500X-0.150000X0*%
%ADD23RoundRect,0.155000X-0.155000X0.212500X-0.155000X-0.212500X0.155000X-0.212500X0.155000X0.212500X0*%
%ADD24R,1.100000X1.100000*%
%ADD25RoundRect,0.250001X0.462499X1.074999X-0.462499X1.074999X-0.462499X-1.074999X0.462499X-1.074999X0*%
G04 APERTURE END LIST*
D10*
%TO.C,J2*%
X123030000Y-91150000D03*
X123030000Y-90650000D03*
X123030000Y-90150000D03*
X123030000Y-89650000D03*
X123030000Y-89150000D03*
X123030000Y-88650000D03*
X123030000Y-88150000D03*
X123030000Y-87650000D03*
X123030000Y-87150000D03*
X123030000Y-86650000D03*
X123030000Y-86150000D03*
X123030000Y-85650000D03*
X123030000Y-85150000D03*
X123030000Y-84650000D03*
X123030000Y-84150000D03*
X123030000Y-83650000D03*
X123030000Y-83150000D03*
X123030000Y-82650000D03*
X123030000Y-82150000D03*
X123030000Y-81650000D03*
X123030000Y-81150000D03*
X123030000Y-80650000D03*
X123030000Y-80150000D03*
X123030000Y-79650000D03*
D11*
X119780000Y-93050000D03*
X119780000Y-77750000D03*
%TD*%
D12*
%TO.C,C16*%
X132367500Y-88600000D03*
X131232500Y-88600000D03*
%TD*%
D13*
%TO.C,Q2*%
X132662500Y-70850000D03*
X132662500Y-72750000D03*
X134537500Y-71800000D03*
%TD*%
D14*
%TO.C,U1*%
X132675000Y-91329000D03*
X132024999Y-91329000D03*
X131375001Y-91329000D03*
X130724999Y-91329000D03*
X130075001Y-91329000D03*
X129425002Y-91329000D03*
X128775001Y-91329000D03*
X128125002Y-91329000D03*
X127475001Y-91329000D03*
X126825002Y-91329000D03*
X126825000Y-97171000D03*
X127474998Y-97171000D03*
X128124999Y-97171000D03*
X128774998Y-97171000D03*
X129424999Y-97171000D03*
X130074998Y-97171000D03*
X130724999Y-97171000D03*
X131374998Y-97171000D03*
X132024999Y-97171000D03*
X132674998Y-97171000D03*
%TD*%
D15*
%TO.C,C13*%
X139200000Y-98767500D03*
X139200000Y-97632500D03*
%TD*%
D16*
%TO.C,Y1*%
X134500000Y-96925000D03*
X134500000Y-95075000D03*
%TD*%
D17*
%TO.C,C2*%
X133832500Y-77400000D03*
X134967500Y-77400000D03*
%TD*%
D18*
%TO.C,R2*%
X129797500Y-86800000D03*
X128602500Y-86800000D03*
%TD*%
D15*
%TO.C,C14*%
X140200000Y-98767500D03*
X140200000Y-97632500D03*
%TD*%
D17*
%TO.C,C9*%
X124632500Y-79400000D03*
X125767500Y-79400000D03*
%TD*%
D18*
%TO.C,R4*%
X132197500Y-82400000D03*
X131002500Y-82400000D03*
%TD*%
D19*
%TO.C,BAT1*%
X146000000Y-71230000D03*
D20*
X132030000Y-85200000D03*
D19*
X146000000Y-99170000D03*
D21*
X146000000Y-85200000D03*
%TD*%
D12*
%TO.C,C15*%
X131967500Y-89600000D03*
X130832500Y-89600000D03*
%TD*%
D22*
%TO.C,Q1*%
X129337500Y-85550000D03*
X129337500Y-83650000D03*
X127462500Y-84600000D03*
%TD*%
D23*
%TO.C,C5*%
X126000000Y-72832500D03*
X126000000Y-73967500D03*
%TD*%
D12*
%TO.C,C4*%
X129967500Y-80000000D03*
X128832500Y-80000000D03*
%TD*%
D23*
%TO.C,C11*%
X136250000Y-94182500D03*
X136250000Y-95317500D03*
%TD*%
D18*
%TO.C,R1*%
X137597500Y-71800000D03*
X136402500Y-71800000D03*
%TD*%
D24*
%TO.C,D2*%
X127600000Y-78200000D03*
X130400000Y-78200000D03*
%TD*%
D15*
%TO.C,C6*%
X125600000Y-91967500D03*
X125600000Y-90832500D03*
%TD*%
D17*
%TO.C,C10*%
X124632500Y-81400000D03*
X125767500Y-81400000D03*
%TD*%
D18*
%TO.C,R3*%
X128197500Y-87800000D03*
X127002500Y-87800000D03*
%TD*%
D17*
%TO.C,C7*%
X124582500Y-82520000D03*
X125717500Y-82520000D03*
%TD*%
%TO.C,C1*%
X133232500Y-78600000D03*
X134367500Y-78600000D03*
%TD*%
D25*
%TO.C,L1*%
X135487500Y-75200000D03*
X132512500Y-75200000D03*
%TD*%
D12*
%TO.C,C3*%
X129767500Y-76400000D03*
X128632500Y-76400000D03*
%TD*%
D24*
%TO.C,D3*%
X130200000Y-74600000D03*
X127400000Y-74600000D03*
%TD*%
D15*
%TO.C,C12*%
X136250000Y-97817500D03*
X136250000Y-96682500D03*
%TD*%
D24*
%TO.C,D1*%
X127400000Y-72000000D03*
X130200000Y-72000000D03*
%TD*%
D17*
%TO.C,C8*%
X124632500Y-80400000D03*
X125767500Y-80400000D03*
%TD*%
M02*
